<svg xmlns="http://www.w3.org/2000/svg" width="252.05126953125" height="255.0063018798828" viewBox="-30.002357482910156 -21.145641326904297 252.05126953125 255.0063018798828"><title>Neo4j Graph Visualization</title><desc>Created using Neo4j (http://www.neo4j.com/)</desc><g class="layer relationships"><g class="relationship" transform="translate(150.31540157750368 204.8606675844354) rotate(233.7239363786569)"><path class="outline" fill="#A5ABB6" stroke="none" d="M 25 0.5 L 43.02757497698424 0.5 L 43.02757497698424 -0.5 L 25 -0.5 Z M 61.92601247698424 0.5 L 79.95358745396848 0.5 L 79.95358745396848 3.5 L 86.95358745396848 0 L 79.95358745396848 -3.5 L 79.95358745396848 -0.5 L 61.92601247698424 -0.5 Z"/><text text-anchor="middle" pointer-events="none" font-size="8px" fill="#000000" x="52.47679372698424" y="3" transform="rotate(180 52.47679372698424 0)" font-family="sans-serif">buy</text></g><g class="relationship" transform="translate(193.0489246283257 89.43052266510098) rotate(526.9913585798292)"><path class="outline" fill="#A5ABB6" stroke="none" d="M 25 0.5 L 40.30490123613446 0.5 L 40.30490123613446 -0.5 L 25 -0.5 Z M 64.53927623613447 0.5 L 79.84417747226892 0.5 L 79.84417747226892 3.5 L 86.84417747226892 0 L 79.84417747226892 -3.5 L 79.84417747226892 -0.5 L 64.53927623613447 -0.5 Z"/><text text-anchor="middle" pointer-events="none" font-size="8px" fill="#000000" x="52.42208873613446" y="3" transform="rotate(180 52.42208873613446 0)" font-family="sans-serif">trade</text></g><g class="relationship" transform="translate(117.3592183432367 7.85435849140281) rotate(467.3169024505729)"><path class="outline" fill="#A5ABB6" stroke="none" d="M 25 0.5 L 37.40051054534866 0.5 L 37.40051054534866 -0.5 L 25 -0.5 Z M 67.42004179534865 0.5 L 79.82055234069732 0.5 L 79.82055234069732 3.5 L 86.82055234069732 0 L 79.82055234069732 -3.5 L 79.82055234069732 -0.5 L 67.42004179534865 -0.5 Z"/><text text-anchor="middle" pointer-events="none" font-size="8px" fill="#000000" x="52.41027617034866" y="3" transform="rotate(180 52.41027617034866 0)" font-family="sans-serif">tighten</text></g><g class="relationship" transform="translate(-1.002357605330628 41.91242393324126) rotate(400.5120635606211)"><path class="outline" fill="#A5ABB6" stroke="none" d="M 25 0.5 L 43.22758406323566 0.5 L 43.22758406323566 -0.5 L 25 -0.5 Z M 61.67680281323566 0.5 L 79.90438687647132 0.5 L 79.90438687647132 3.5 L 86.90438687647132 0 L 79.90438687647132 -3.5 L 79.90438687647132 -0.5 L 61.67680281323566 -0.5 Z"/><text text-anchor="middle" pointer-events="none" font-size="8px" fill="#000000" x="52.45219343823566" y="3" font-family="sans-serif">say</text></g><g class="relationship" transform="translate(3.8996265494568036 189.2223840303918) rotate(317.0569608163558)"><path class="outline" fill="#A5ABB6" stroke="none" d="M 25 0.5 L 42.03771419406266 0.5 L 42.03771419406266 -0.5 L 25 -0.5 Z M 60.48693294406266 0.5 L 77.52464713812532 0.5 L 77.52464713812532 3.5 L 84.52464713812532 0 L 77.52464713812532 -3.5 L 77.52464713812532 -0.5 L 60.48693294406266 -0.5 Z"/><text text-anchor="middle" pointer-events="none" font-size="8px" fill="#000000" x="51.26232356906266" y="3" font-family="sans-serif">say</text></g></g><g class="layer nodes"><g class="node" transform="translate(150.31540157750368,204.8606675844354)"><circle class="outline" cx="0" cy="0" r="25" fill="#ECB5C9" stroke="#da7298" stroke-width="2px"/><text text-anchor="middle" pointer-events="none" font-family="sans-serif" dy="1.5625" font-size="25" fill="#2A2C34"/><text text-anchor="middle" pointer-events="none" x="0" y="5" font-size="10px" fill="#2A2C34" font-family="sans-serif"> ajinomoto</text></g><g class="node" transform="translate(84.07510199992068,114.6064241623922)"><circle class="outline" cx="0" cy="0" r="25" fill="#4C8EDA" stroke="#2870c2" stroke-width="2px"/><text text-anchor="middle" pointer-events="none" font-family="sans-serif" dy="1.5625" font-size="25" fill="#FFFFFF"/><text text-anchor="middle" pointer-events="none" x="0" y="5" font-size="10px" fill="#FFFFFF" font-family="sans-serif"> tin</text></g><g class="node" transform="translate(193.0489246283257,89.43052266510098)"><circle class="outline" cx="0" cy="0" r="25" fill="#ECB5C9" stroke="#da7298" stroke-width="2px"/><text text-anchor="middle" pointer-events="none" font-family="sans-serif" dy="1.5625" font-size="25" fill="#2A2C34"/><text text-anchor="middle" pointer-events="none" x="0" y="5" font-size="10px" fill="#2A2C34" font-family="sans-serif"> gsa</text></g><g class="node" transform="translate(117.3592183432367,7.85435849140281)"><circle class="outline" cx="0" cy="0" r="25" fill="#D9C8AE" stroke="#c0a378" stroke-width="2px"/><text text-anchor="middle" pointer-events="none" font-family="sans-serif" dy="1.5625" font-size="25" fill="#2A2C34"/><text text-anchor="middle" pointer-events="none" x="0" y="5" font-size="10px" fill="#2A2C34" font-family="sans-serif"> thailand</text></g><g class="node" transform="translate(-1.002357605330628,41.91242393324126)"><circle class="outline" cx="0" cy="0" r="25" fill="#ECB5C9" stroke="#da7298" stroke-width="2px"/><text text-anchor="middle" pointer-events="none" font-family="sans-serif" dy="1.5625" font-size="25" fill="#2A2C34"/><text text-anchor="middle" pointer-events="none" x="0" y="5" font-size="10px" fill="#2A2C34" font-family="sans-serif"> shultz</text></g><g class="node" transform="translate(3.8996265494568036,189.2223840303918)"><circle class="outline" cx="0" cy="0" r="25" fill="#D9C8AE" stroke="#c0a378" stroke-width="2px"/><text text-anchor="middle" pointer-events="none" font-family="sans-serif" dy="1.5625" font-size="25" fill="#2A2C34"/><text text-anchor="middle" pointer-events="none" x="0" y="5" font-size="10px" fill="#2A2C34" font-family="sans-serif"> bolivia</text></g></g></svg>