<svg xmlns="http://www.w3.org/2000/svg" width="549.6673583984375" height="476.0750732421875" viewBox="-232.7738037109375 -212.94371032714844 549.6673583984375 476.0750732421875"><title>Neo4j Graph Visualization</title><desc>Created using Neo4j (http://www.neo4j.com/)</desc><g class="layer relationships"><g class="relationship" transform="translate(132.95276317829007 211.30069205428276) rotate(272.1347796125923)"><path class="outline" fill="#A5ABB6" stroke="none" d="M 25 0.5 L 58.86382302882794 0.5 L 58.86382302882794 -0.5 L 25 -0.5 Z M 83.09819802882794 0.5 L 116.96202105765587 0.5 L 116.96202105765587 3.5 L 123.96202105765587 0 L 116.96202105765587 -3.5 L 116.96202105765587 -0.5 L 83.09819802882794 -0.5 Z"/><text text-anchor="middle" pointer-events="none" font-size="8px" fill="#000000" x="70.98101052882794" y="3" font-family="sans-serif">trade</text></g><g class="relationship" transform="translate(213.93542252711723 179.9572545837629) rotate(237.3033282469936)"><path class="outline" fill="#A5ABB6" stroke="none" d="M 25 0.5 L 54.2041501329569 0.5 L 54.2041501329569 -0.5 L 25 -0.5 Z M 78.4385251329569 0.5 L 107.6426752659138 0.5 L 107.6426752659138 3.5 L 114.6426752659138 0 L 107.6426752659138 -3.5 L 107.6426752659138 -0.5 L 78.4385251329569 -0.5 Z"/><text text-anchor="middle" pointer-events="none" font-size="8px" fill="#000000" x="66.3213376329569" y="3" transform="rotate(180 66.3213376329569 0)" font-family="sans-serif">trade</text></g><g class="relationship" transform="translate(287.78189151689645 80.63468985333205) rotate(186.9483155619164)"><path class="outline" fill="#A5ABB6" stroke="none" d="M 25 0.5 L 59.57517233943278 0.5 L 59.57517233943278 -0.5 L 25 -0.5 Z M 83.80954733943278 0.5 L 118.38471967886557 0.5 L 118.38471967886557 3.5 L 125.38471967886557 0 L 118.38471967886557 -3.5 L 118.38471967886557 -0.5 L 83.80954733943278 -0.5 Z"/><text text-anchor="middle" pointer-events="none" font-size="8px" fill="#000000" x="71.69235983943278" y="3" transform="rotate(180 71.69235983943278 0)" font-family="sans-serif">trade</text></g><g class="relationship" transform="translate(261.82238620791816 130.89999955968563) rotate(209.03557842859954)"><path class="outline" fill="#A5ABB6" stroke="none" d="M 25 0.5 L 54.90673622932512 0.5 L 54.90673622932512 -0.5 L 25 -0.5 Z M 79.14111122932512 0.5 L 109.04784745865024 0.5 L 109.04784745865024 3.5 L 116.04784745865024 0 L 109.04784745865024 -3.5 L 109.04784745865024 -0.5 L 79.14111122932512 -0.5 Z"/><text text-anchor="middle" pointer-events="none" font-size="8px" fill="#000000" x="67.02392372932512" y="3" transform="rotate(180 67.02392372932512 0)" font-family="sans-serif">trade</text></g><g class="relationship" transform="translate(287.89354631798824 -2.0351663120764343) rotate(516.6550765097237)"><path class="outline" fill="#A5ABB6" stroke="none" d="M 25 0.5 L 65.73890063665144 0.5 L 65.73890063665144 -0.5 L 25 -0.5 Z M 89.97327563665144 0.5 L 130.71217627330287 0.5 L 130.71217627330287 3.5 L 137.71217627330287 0 L 130.71217627330287 -3.5 L 130.71217627330287 -0.5 L 89.97327563665144 -0.5 Z"/><text text-anchor="middle" pointer-events="none" font-size="8px" fill="#000000" x="77.85608813665144" y="3" transform="rotate(180 77.85608813665144 0)" font-family="sans-serif">trade</text></g><g class="relationship" transform="translate(270.28037299669506 -58.07477120887419) rotate(497.5558569398662)"><path class="outline" fill="#A5ABB6" stroke="none" d="M 25 0.5 L 73.67158375615949 0.5 L 73.67158375615949 -0.5 L 25 -0.5 Z M 97.90595875615949 0.5 L 146.57754251231898 0.5 L 146.57754251231898 3.5 L 153.57754251231898 0 L 146.57754251231898 -3.5 L 146.57754251231898 -0.5 L 97.90595875615949 -0.5 Z"/><text text-anchor="middle" pointer-events="none" font-size="8px" fill="#000000" x="85.78877125615949" y="3" transform="rotate(180 85.78877125615949 0)" font-family="sans-serif">trade</text></g><g class="relationship" transform="translate(220.08579171702934 -117.14740641632129) rotate(474.4314134516223)"><path class="outline" fill="#A5ABB6" stroke="none" d="M 25 0.5 L 83.00880789762284 0.5 L 83.00880789762284 -0.5 L 25 -0.5 Z M 107.24318289762284 0.5 L 165.2519907952457 0.5 L 165.2519907952457 3.5 L 172.2519907952457 0 L 165.2519907952457 -3.5 L 165.2519907952457 -0.5 L 107.24318289762284 -0.5 Z"/><text text-anchor="middle" pointer-events="none" font-size="8px" fill="#000000" x="95.12599539762284" y="3" transform="rotate(180 95.12599539762284 0)" font-family="sans-serif">trade</text></g><g class="relationship" transform="translate(147.34825811499184 -183.94370859688536) rotate(477.10146741564273)"><path class="outline" fill="#A5ABB6" stroke="none" d="M 25 0.5 L 57.03812529697207 0.5 L 57.03812529697207 -0.5 L 25 -0.5 Z M 81.27250029697207 0.5 L 113.31062559394414 0.5 L 113.31062559394414 3.5 L 120.31062559394414 0 L 113.31062559394414 -3.5 L 113.31062559394414 -0.5 L 81.27250029697207 -0.5 Z"/><text text-anchor="middle" pointer-events="none" font-size="8px" fill="#000000" x="69.15531279697207" y="3" transform="rotate(180 69.15531279697207 0)" font-family="sans-serif">trade</text></g><g class="relationship" transform="translate(-29.13755519819685 -173.91811836910625) rotate(443.8152181975722)"><path class="outline" fill="#A5ABB6" stroke="none" d="M 25 0.5 L 44.752866364134526 0.5 L 44.752866364134526 -0.5 L 25 -0.5 Z M 68.98724136413452 0.5 L 88.74010772826905 0.5 L 88.74010772826905 3.5 L 95.74010772826905 0 L 88.74010772826905 -3.5 L 88.74010772826905 -0.5 L 68.98724136413452 -0.5 Z"/><text text-anchor="middle" pointer-events="none" font-size="8px" fill="#000000" x="56.870053864134526" y="3" font-family="sans-serif">trade</text></g><g class="relationship" transform="translate(-146.4420674205046 -125.80032183697351) rotate(388.89433878473403)"><path class="outline" fill="#A5ABB6" stroke="none" d="M 25 0.5 L 58.80351881345754 0.5 L 58.80351881345754 -0.5 L 25 -0.5 Z M 83.03789381345754 0.5 L 116.84141262691509 0.5 L 116.84141262691509 3.5 L 123.84141262691509 0 L 116.84141262691509 -3.5 L 116.84141262691509 -0.5 L 83.03789381345754 -0.5 Z"/><text text-anchor="middle" pointer-events="none" font-size="8px" fill="#000000" x="70.92070631345754" y="3" font-family="sans-serif">trade</text></g><g class="relationship" transform="translate(-203.77381131337924 -34.962524908275384) rotate(354.242908790759)"><path class="outline" fill="#A5ABB6" stroke="none" d="M 25 0.5 L 78.68055364095663 0.5 L 78.68055364095663 -0.5 L 25 -0.5 Z M 102.91492864095663 0.5 L 156.59548228191326 0.5 L 156.59548228191326 3.5 L 163.59548228191326 0 L 156.59548228191326 -3.5 L 156.59548228191326 -0.5 L 102.91492864095663 -0.5 Z"/><text text-anchor="middle" pointer-events="none" font-size="8px" fill="#000000" x="90.79774114095663" y="3" font-family="sans-serif">trade</text></g><g class="relationship" transform="translate(-185.14306427717818 58.438677978803696) rotate(326.393614121959)"><path class="outline" fill="#A5ABB6" stroke="none" d="M 25 0.5 L 85.84858726233122 0.5 L 85.84858726233122 -0.5 L 25 -0.5 Z M 110.08296226233122 0.5 L 170.93154952466244 0.5 L 170.93154952466244 3.5 L 177.93154952466244 0 L 170.93154952466244 -3.5 L 170.93154952466244 -0.5 L 110.08296226233122 -0.5 Z"/><text text-anchor="middle" pointer-events="none" font-size="8px" fill="#000000" x="97.96577476233122" y="3" font-family="sans-serif">trade</text></g><g class="relationship" transform="translate(-127.08702523346264 147.3450195022386) rotate(309.912436048262)"><path class="outline" fill="#A5ABB6" stroke="none" d="M 25 0.5 L 42.62040533220154 0.5 L 42.62040533220154 -0.5 L 25 -0.5 Z M 66.85478033220154 0.5 L 84.47518566440309 0.5 L 84.47518566440309 3.5 L 91.47518566440309 0 L 84.47518566440309 -3.5 L 84.47518566440309 -0.5 L 66.85478033220154 -0.5 Z"/><text text-anchor="middle" pointer-events="none" font-size="8px" fill="#000000" x="54.73759283220154" y="3" font-family="sans-serif">trade</text></g><g class="relationship" transform="translate(36.03377777655447 234.13133725139903) rotate(272.73528702531945)"><path class="outline" fill="#A5ABB6" stroke="none" d="M 25 0.5 L 48.956277460305 0.5 L 48.956277460305 -0.5 L 25 -0.5 Z M 73.190652460305 0.5 L 97.14692992061 0.5 L 97.14692992061 3.5 L 104.14692992061 0 L 97.14692992061 -3.5 L 97.14692992061 -0.5 L 73.190652460305 -0.5 Z"/><text text-anchor="middle" pointer-events="none" font-size="8px" fill="#000000" x="61.073464960305" y="3" font-family="sans-serif">trade</text></g></g><g class="layer nodes"><g class="node" transform="translate(132.95276317829007,211.30069205428276)"><circle class="outline" cx="0" cy="0" r="25" fill="#ECB5C9" stroke="#da7298" stroke-width="2px"/><text text-anchor="middle" pointer-events="none" font-family="sans-serif" dy="1.5625" font-size="25" fill="#2A2C34"/><text text-anchor="middle" pointer-events="none" x="0" y="5" font-size="10px" fill="#2A2C34" font-family="sans-serif"> adnoc</text></g><g class="node" transform="translate(138.50164508675022,62.44205566677758)"><circle class="outline" cx="0" cy="0" r="25" fill="#4C8EDA" stroke="#2870c2" stroke-width="2px"/><text text-anchor="middle" pointer-events="none" font-family="sans-serif" dy="1.5625" font-size="25" fill="#FFFFFF"/><text text-anchor="middle" pointer-events="none" x="0" y="5" font-size="10px" fill="#FFFFFF" font-family="sans-serif"> oil</text></g><g class="node" transform="translate(213.93542252711723,179.9572545837629)"><circle class="outline" cx="0" cy="0" r="25" fill="#D9C8AE" stroke="#c0a378" stroke-width="2px"/><text text-anchor="middle" pointer-events="none" font-family="sans-serif" dy="1.5625" font-size="25" fill="#2A2C34"/><text text-anchor="middle" pointer-events="none" x="0" y="5" font-size="10px" fill="#2A2C34" font-family="sans-serif"> kuwait</text></g><g class="node" transform="translate(287.78189151689645,80.63468985333205)"><circle class="outline" cx="0" cy="0" r="25" fill="#D9C8AE" stroke="#c0a378" stroke-width="2px"/><text text-anchor="middle" pointer-events="none" font-family="sans-serif" dy="1.5625" font-size="25" fill="#2A2C34"/><text text-anchor="middle" pointer-events="none" x="0" y="5" font-size="10px" fill="#2A2C34" font-family="sans-serif"> malaysia</text></g><g class="node" transform="translate(261.82238620791816,130.89999955968563)"><circle class="outline" cx="0" cy="0" r="25" fill="#ECB5C9" stroke="#da7298" stroke-width="2px"/><text text-anchor="middle" pointer-events="none" font-family="sans-serif" dy="1.5625" font-size="25" fill="#2A2C34"/><text text-anchor="middle" pointer-events="none" x="0" y="5" font-size="10px" fill="#2A2C34" font-family="sans-serif"> opec</text></g><g class="node" transform="translate(287.89354631798824,-2.0351663120764343)"><circle class="outline" cx="0" cy="0" r="25" fill="#ECB5C9" stroke="#da7298" stroke-width="2px"/><text text-anchor="middle" pointer-events="none" font-family="sans-serif" dy="1.5625" font-size="25" fill="#2A2C34"/><text text-anchor="middle" pointer-events="none" x="0" y="5" font-size="10px" fill="#2A2C34" font-family="sans-serif"> nymex</text></g><g class="node" transform="translate(270.28037299669506,-58.07477120887419)"><circle class="outline" cx="0" cy="0" r="25" fill="#FFC454" stroke="#d7a013" stroke-width="2px"/><text text-anchor="middle" pointer-events="none" font-family="sans-serif" dy="1.5625" font-size="25" fill="#2A2C34"/><text text-anchor="middle" pointer-events="none" x="0" y="5" font-size="10px" fill="#2A2C34" font-family="sans-serif"> saudis</text></g><g class="node" transform="translate(220.08579171702934,-117.14740641632129)"><circle class="outline" cx="0" cy="0" r="25" fill="#D9C8AE" stroke="#c0a378" stroke-width="2px"/><text text-anchor="middle" pointer-events="none" font-family="sans-serif" dy="1.5625" font-size="25" fill="#2A2C34"/><text text-anchor="middle" pointer-events="none" x="0" y="5" font-size="10px" fill="#2A2C34" font-family="sans-serif"> ecuador</text></g><g class="node" transform="translate(147.34825811499184,-183.94370859688536)"><circle class="outline" cx="0" cy="0" r="25" fill="#ECB5C9" stroke="#da7298" stroke-width="2px"/><text text-anchor="middle" pointer-events="none" font-family="sans-serif" dy="1.5625" font-size="25" fill="#2A2C34"/><text text-anchor="middle" pointer-events="none" x="0" y="5" font-size="10px" fill="#2A2C34" font-family="sans-serif"> gsa</text></g><g class="node" transform="translate(81.14942967828787,-54.588024438394484)"><circle class="outline" cx="0" cy="0" r="25" fill="#4C8EDA" stroke="#2870c2" stroke-width="2px"/><text text-anchor="middle" pointer-events="none" font-family="sans-serif" dy="1.5625" font-size="25" fill="#FFFFFF"/><text text-anchor="middle" pointer-events="none" x="0" y="5" font-size="10px" fill="#FFFFFF" font-family="sans-serif"> tin</text></g><g class="node" transform="translate(-29.13755519819685,-173.91811836910625)"><circle class="outline" cx="0" cy="0" r="25" fill="#ECB5C9" stroke="#da7298" stroke-width="2px"/><text text-anchor="middle" pointer-events="none" font-family="sans-serif" dy="1.5625" font-size="25" fill="#2A2C34"/><text text-anchor="middle" pointer-events="none" x="0" y="5" font-size="10px" fill="#2A2C34" font-family="sans-serif"> iwc</text></g><g class="node" transform="translate(-16.129583736355244,-53.88076463002247)"><circle class="outline" cx="0" cy="0" r="25" fill="#4C8EDA" stroke="#2870c2" stroke-width="2px"/><text text-anchor="middle" pointer-events="none" font-family="sans-serif" dy="1.5625" font-size="25" fill="#FFFFFF"/><text text-anchor="middle" pointer-events="none" x="0" y="5" font-size="10px" fill="#FFFFFF" font-family="sans-serif"> wheat</text></g><g class="node" transform="translate(-146.4420674205046,-125.80032183697351)"><circle class="outline" cx="0" cy="0" r="25" fill="#D9C8AE" stroke="#c0a378" stroke-width="2px"/><text text-anchor="middle" pointer-events="none" font-family="sans-serif" dy="1.5625" font-size="25" fill="#2A2C34"/><text text-anchor="middle" pointer-events="none" x="0" y="5" font-size="10px" fill="#2A2C34" font-family="sans-serif"> u.s</text></g><g class="node" transform="translate(-203.77381131337924,-34.962524908275384)"><circle class="outline" cx="0" cy="0" r="25" fill="#ECB5C9" stroke="#da7298" stroke-width="2px"/><text text-anchor="middle" pointer-events="none" font-family="sans-serif" dy="1.5625" font-size="25" fill="#2A2C34"/><text text-anchor="middle" pointer-events="none" x="0" y="5" font-size="10px" fill="#2A2C34" font-family="sans-serif"> ec</text></g><g class="node" transform="translate(-185.14306427717818,58.438677978803696)"><circle class="outline" cx="0" cy="0" r="25" fill="#D9C8AE" stroke="#c0a378" stroke-width="2px"/><text text-anchor="middle" pointer-events="none" font-family="sans-serif" dy="1.5625" font-size="25" fill="#2A2C34"/><text text-anchor="middle" pointer-events="none" x="0" y="5" font-size="10px" fill="#2A2C34" font-family="sans-serif"> france</text></g><g class="node" transform="translate(-127.08702523346264,147.3450195022386)"><circle class="outline" cx="0" cy="0" r="25" fill="#D9C8AE" stroke="#c0a378" stroke-width="2px"/><text text-anchor="middle" pointer-events="none" font-family="sans-serif" dy="1.5625" font-size="25" fill="#2A2C34"/><text text-anchor="middle" pointer-events="none" x="0" y="5" font-size="10px" fill="#2A2C34" font-family="sans-serif"> china</text></g><g class="node" transform="translate(-52.35466740774359,58.00553456211901)"><circle class="outline" cx="0" cy="0" r="25" fill="#4C8EDA" stroke="#2870c2" stroke-width="2px"/><text text-anchor="middle" pointer-events="none" font-family="sans-serif" dy="1.5625" font-size="25" fill="#FFFFFF"/><text text-anchor="middle" pointer-events="none" x="0" y="5" font-size="10px" fill="#FFFFFF" font-family="sans-serif"> gold</text></g><g class="node" transform="translate(36.03377777655447,234.13133725139903)"><circle class="outline" cx="0" cy="0" r="25" fill="#ECB5C9" stroke="#da7298" stroke-width="2px"/><text text-anchor="middle" pointer-events="none" font-family="sans-serif" dy="1.5625" font-size="25" fill="#2A2C34"/><text text-anchor="middle" pointer-events="none" x="0" y="5" font-size="10px" fill="#2A2C34" font-family="sans-serif"> usda</text></g><g class="node" transform="translate(42.1968801452843,105.13154780540222)"><circle class="outline" cx="0" cy="0" r="25" fill="#4C8EDA" stroke="#2870c2" stroke-width="2px"/><text text-anchor="middle" pointer-events="none" font-family="sans-serif" dy="1.5625" font-size="25" fill="#FFFFFF"/><text text-anchor="middle" pointer-events="none" x="0" y="5" font-size="10px" fill="#FFFFFF" font-family="sans-serif"> corn</text></g></g></svg>