<svg xmlns="http://www.w3.org/2000/svg" width="652.1008911132812" height="610.3255615234375" viewBox="-299.58721923828125 -219.49627685546875 652.1008911132812 610.3255615234375"><title>Neo4j Graph Visualization</title><desc>Created using Neo4j (http://www.neo4j.com/)</desc><g class="layer relationships"><g class="relationship" transform="translate(-63.54900879736712 361.82925630137163) rotate(281.8651914412834)"><path class="outline" fill="#A5ABB6" stroke="none" d="M 25 0.5 L 93.00360848400874 0.5 L 93.00360848400874 -0.5 L 25 -0.5 Z M 111.90204598400874 0.5 L 179.90565446801747 0.5 L 179.90565446801747 3.5 L 186.90565446801747 0 L 179.90565446801747 -3.5 L 179.90565446801747 -0.5 L 111.90204598400874 -0.5 Z"/><text text-anchor="middle" pointer-events="none" font-size="8px" fill="#000000" x="102.45282723400874" y="3" font-family="sans-serif">buy</text></g><g class="relationship" transform="translate(8.978689624681161 353.0727113041727) rotate(261.7050576700744)"><path class="outline" fill="#A5ABB6" stroke="none" d="M 25 0.5 L 87.4114768057155 0.5 L 87.4114768057155 -0.5 L 25 -0.5 Z M 106.3099143057155 0.5 L 168.721391111431 0.5 L 168.721391111431 3.5 L 175.721391111431 0 L 168.721391111431 -3.5 L 168.721391111431 -0.5 L 106.3099143057155 -0.5 Z"/><text text-anchor="middle" pointer-events="none" font-size="8px" fill="#000000" x="96.8606955557155" y="3" transform="rotate(180 96.8606955557155 0)" font-family="sans-serif">buy</text></g><g class="relationship" transform="translate(103.78231637051427 327.8661843090399) rotate(234.48560721708907)"><path class="outline" fill="#A5ABB6" stroke="none" d="M 25 0.5 L 93.57504136758814 0.5 L 93.57504136758814 -0.5 L 25 -0.5 Z M 112.47347886758814 0.5 L 181.04852023517628 0.5 L 181.04852023517628 3.5 L 188.04852023517628 0 L 181.04852023517628 -3.5 L 181.04852023517628 -0.5 L 112.47347886758814 -0.5 Z"/><text text-anchor="middle" pointer-events="none" font-size="8px" fill="#000000" x="103.02426011758814" y="3" transform="rotate(180 103.02426011758814 0)" font-family="sans-serif">buy</text></g><g class="relationship" transform="translate(-219.99110333499834 295.73828098778216) rotate(324.7628687534339)"><path class="outline" fill="#A5ABB6" stroke="none" d="M 25 0.5 L 109.49140932638203 0.5 L 109.49140932638203 -0.5 L 25 -0.5 Z M 128.38984682638204 0.5 L 212.88125615276405 0.5 L 212.88125615276405 3.5 L 219.88125615276405 0 L 212.88125615276405 -3.5 L 212.88125615276405 -0.5 L 128.38984682638204 -0.5 Z"/><text text-anchor="middle" pointer-events="none" font-size="8px" fill="#000000" x="118.94062807638203" y="3" font-family="sans-serif">buy</text></g><g class="relationship" transform="translate(-146.66146089307463 336.711442180952) rotate(304.80171920999896)"><path class="outline" fill="#A5ABB6" stroke="none" d="M 25 0.5 L 98.03187937011796 0.5 L 98.03187937011796 -0.5 L 25 -0.5 Z M 116.93031687011796 0.5 L 189.96219624023593 0.5 L 189.96219624023593 3.5 L 196.96219624023593 0 L 189.96219624023593 -3.5 L 189.96219624023593 -0.5 L 116.93031687011796 -0.5 Z"/><text text-anchor="middle" pointer-events="none" font-size="8px" fill="#000000" x="107.48109812011796" y="3" font-family="sans-serif">buy</text></g><g class="relationship" transform="translate(190.43918179067578 275.89945183476226) rotate(229.37241630091103)"><path class="outline" fill="#A5ABB6" stroke="none" d="M 25 0.5 L 80.57031211097176 0.5 L 80.57031211097176 -0.5 L 25 -0.5 Z M 99.46874961097176 0.5 L 155.0390617219435 0.5 L 155.0390617219435 3.5 L 162.0390617219435 0 L 155.0390617219435 -3.5 L 155.0390617219435 -0.5 L 99.46874961097176 -0.5 Z"/><text text-anchor="middle" pointer-events="none" font-size="8px" fill="#000000" x="90.01953086097176" y="3" transform="rotate(180 90.01953086097176 0)" font-family="sans-serif">buy</text></g><g class="relationship" transform="translate(310.1079164895923 85.32846806664782) rotate(200.417391402995)"><path class="outline" fill="#A5ABB6" stroke="none" d="M 25 0.5 L 118.26914021139856 0.5 L 118.26914021139856 -0.5 L 25 -0.5 Z M 137.16757771139856 0.5 L 230.43671792279713 0.5 L 230.43671792279713 3.5 L 237.43671792279713 0 L 230.43671792279713 -3.5 L 230.43671792279713 -0.5 L 137.16757771139856 -0.5 Z"/><text text-anchor="middle" pointer-events="none" font-size="8px" fill="#000000" x="127.71835896139856" y="3" transform="rotate(180 127.71835896139856 0)" font-family="sans-serif">buy</text></g><g class="relationship" transform="translate(287.72736955181074 -57.404702715067735) rotate(527.1057717201797)"><path class="outline" fill="#A5ABB6" stroke="none" d="M 25 0.5 L 101.72693389273722 0.5 L 101.72693389273722 -0.5 L 25 -0.5 Z M 120.62537139273722 0.5 L 197.35230528547444 0.5 L 197.35230528547444 3.5 L 204.35230528547444 0 L 197.35230528547444 -3.5 L 197.35230528547444 -0.5 L 120.62537139273722 -0.5 Z"/><text text-anchor="middle" pointer-events="none" font-size="8px" fill="#000000" x="111.17615264273722" y="3" transform="rotate(180 111.17615264273722 0)" font-family="sans-serif">buy</text></g><g class="relationship" transform="translate(99.30512847521227 -182.72231106590573) rotate(461.2621794392984)"><path class="outline" fill="#A5ABB6" stroke="none" d="M 25 0.5 L 77.03249628595707 0.5 L 77.03249628595707 -0.5 L 25 -0.5 Z M 95.93093378595707 0.5 L 147.96343007191413 0.5 L 147.96343007191413 3.5 L 154.96343007191413 0 L 147.96343007191413 -3.5 L 147.96343007191413 -0.5 L 95.93093378595707 -0.5 Z"/><text text-anchor="middle" pointer-events="none" font-size="8px" fill="#000000" x="86.48171503595707" y="3" transform="rotate(180 86.48171503595707 0)" font-family="sans-serif">buy</text></g><g class="relationship" transform="translate(178.97916203004598 -148.54751855054275) rotate(488.895199275849)"><path class="outline" fill="#A5ABB6" stroke="none" d="M 25 0.5 L 78.48338984663528 0.5 L 78.48338984663528 -0.5 L 25 -0.5 Z M 97.38182734663528 0.5 L 150.86521719327055 0.5 L 150.86521719327055 3.5 L 157.86521719327055 0 L 150.86521719327055 -3.5 L 150.86521719327055 -0.5 L 97.38182734663528 -0.5 Z"/><text text-anchor="middle" pointer-events="none" font-size="8px" fill="#000000" x="87.93260859663528" y="3" transform="rotate(180 87.93260859663528 0)" font-family="sans-serif">buy</text></g><g class="relationship" transform="translate(323.51365806204353 16.049533709693016) rotate(184.9086069534843)"><path class="outline" fill="#A5ABB6" stroke="none" d="M 25 0.5 L 117.20571666885317 0.5 L 117.20571666885317 -0.5 L 25 -0.5 Z M 136.10415416885317 0.5 L 228.30987083770634 0.5 L 228.30987083770634 3.5 L 235.30987083770634 0 L 228.30987083770634 -3.5 L 228.30987083770634 -0.5 L 136.10415416885317 -0.5 Z"/><text text-anchor="middle" pointer-events="none" font-size="8px" fill="#000000" x="126.65493541885317" y="3" transform="rotate(180 126.65493541885317 0)" font-family="sans-serif">buy</text></g><g class="relationship" transform="translate(238.24399987884527 -103.12685937937572) rotate(510.8980374976582)"><path class="outline" fill="#A5ABB6" stroke="none" d="M 25 0.5 L 86.66989740194877 0.5 L 86.66989740194877 -0.5 L 25 -0.5 Z M 105.56833490194877 0.5 L 167.23823230389755 0.5 L 167.23823230389755 3.5 L 174.23823230389755 0 L 167.23823230389755 -3.5 L 167.23823230389755 -0.5 L 105.56833490194877 -0.5 Z"/><text text-anchor="middle" pointer-events="none" font-size="8px" fill="#000000" x="96.11911615194877" y="3" transform="rotate(180 96.11911615194877 0)" font-family="sans-serif">buy</text></g><g class="relationship" transform="translate(240.78288078906897 223.79343871649618) rotate(231.7395540239022)"><path class="outline" fill="#A5ABB6" stroke="none" d="M 25 0.5 L 90.70655904697439 0.5 L 90.70655904697439 -0.5 L 25 -0.5 Z M 109.60499654697439 0.5 L 175.31155559394878 0.5 L 175.31155559394878 3.5 L 182.31155559394878 0 L 175.31155559394878 -3.5 L 175.31155559394878 -0.5 L 109.60499654697439 -0.5 Z"/><text text-anchor="middle" pointer-events="none" font-size="8px" fill="#000000" x="100.15577779697439" y="3" transform="rotate(180 100.15577779697439 0)" font-family="sans-serif">buy</text></g><g class="relationship" transform="translate(286.4380682080842 164.43179495285386) rotate(210.72157608820646)"><path class="outline" fill="#A5ABB6" stroke="none" d="M 25 0.5 L 88.27115121848355 0.5 L 88.27115121848355 -0.5 L 25 -0.5 Z M 107.16958871848355 0.5 L 170.4407399369671 0.5 L 170.4407399369671 3.5 L 177.4407399369671 0 L 170.4407399369671 -3.5 L 170.4407399369671 -0.5 L 107.16958871848355 -0.5 Z"/><text text-anchor="middle" pointer-events="none" font-size="8px" fill="#000000" x="97.72036996848355" y="3" transform="rotate(180 97.72036996848355 0)" font-family="sans-serif">buy</text></g><g class="relationship" transform="translate(310.1079164895923 85.32846806664782) rotate(187.0121019036971)"><path class="outline" fill="#A5ABB6" stroke="none" d="M 25 0.5 L 86.64573550278641 0.5 L 86.64573550278641 -0.5 L 25 -0.5 Z M 105.54417300278641 0.5 L 167.18990850557282 0.5 L 167.18990850557282 3.5 L 174.18990850557282 0 L 167.18990850557282 -3.5 L 167.18990850557282 -0.5 L 105.54417300278641 -0.5 Z"/><text text-anchor="middle" pointer-events="none" font-size="8px" fill="#000000" x="96.09495425278641" y="3" transform="rotate(180 96.09495425278641 0)" font-family="sans-serif">buy</text></g><g class="relationship" transform="translate(323.51365806204353 16.049533709693016) rotate(527.9766020310933)"><path class="outline" fill="#A5ABB6" stroke="none" d="M 25 0.5 L 94.9711658636763 0.5 L 94.9711658636763 -0.5 L 25 -0.5 Z M 113.8696033636763 0.5 L 183.8407692273526 0.5 L 183.8407692273526 3.5 L 190.8407692273526 0 L 183.8407692273526 -3.5 L 183.8407692273526 -0.5 L 113.8696033636763 -0.5 Z"/><text text-anchor="middle" pointer-events="none" font-size="8px" fill="#000000" x="104.4203846136763" y="3" transform="rotate(180 104.4203846136763 0)" font-family="sans-serif">buy</text></g><g class="relationship" transform="translate(287.72736955181074 -57.404702715067735) rotate(505.96367845772033)"><path class="outline" fill="#A5ABB6" stroke="none" d="M 25 0.5 L 92.83279686360304 0.5 L 92.83279686360304 -0.5 L 25 -0.5 Z M 111.73123436360304 0.5 L 179.56403122720607 0.5 L 179.56403122720607 3.5 L 186.56403122720607 0 L 179.56403122720607 -3.5 L 179.56403122720607 -0.5 L 111.73123436360304 -0.5 Z"/><text text-anchor="middle" pointer-events="none" font-size="8px" fill="#000000" x="102.28201561360304" y="3" transform="rotate(180 102.28201561360304 0)" font-family="sans-serif">buy</text></g><g class="relationship" transform="translate(-13.898336203851144 -190.4962763533954) rotate(454.3191316615639)"><path class="outline" fill="#A5ABB6" stroke="none" d="M 25 0.5 L 67.89481180466126 0.5 L 67.89481180466126 -0.5 L 25 -0.5 Z M 86.79324930466126 0.5 L 129.68806110932252 0.5 L 129.68806110932252 3.5 L 136.68806110932252 0 L 129.68806110932252 -3.5 L 129.68806110932252 -0.5 L 86.79324930466126 -0.5 Z"/><text text-anchor="middle" pointer-events="none" font-size="8px" fill="#000000" x="77.34403055466126" y="3" transform="rotate(180 77.34403055466126 0)" font-family="sans-serif">buy</text></g><g class="relationship" transform="translate(-140.26317443656345 -161.24327476201142) rotate(409.1330664638331)"><path class="outline" fill="#A5ABB6" stroke="none" d="M 25 0.5 L 74.30972471542881 0.5 L 74.30972471542881 -0.5 L 25 -0.5 Z M 93.20816221542881 0.5 L 142.51788693085763 0.5 L 142.51788693085763 3.5 L 149.51788693085763 0 L 142.51788693085763 -3.5 L 142.51788693085763 -0.5 L 93.20816221542881 -0.5 Z"/><text text-anchor="middle" pointer-events="none" font-size="8px" fill="#000000" x="83.75894346542881" y="3" font-family="sans-serif">buy</text></g><g class="relationship" transform="translate(-255.08936175384613 -56.192131359000186) rotate(386.3644784387324)"><path class="outline" fill="#A5ABB6" stroke="none" d="M 25 0.5 L 72.31582361555837 0.5 L 72.31582361555837 -0.5 L 25 -0.5 Z M 91.21426111555837 0.5 L 138.53008473111674 0.5 L 138.53008473111674 3.5 L 145.53008473111674 0 L 138.53008473111674 -3.5 L 138.53008473111674 -0.5 L 91.21426111555837 -0.5 Z"/><text text-anchor="middle" pointer-events="none" font-size="8px" fill="#000000" x="81.76504236555837" y="3" font-family="sans-serif">buy</text></g><g class="relationship" transform="translate(-270.5872328892077 63.59024054136839) rotate(345.33084385869495)"><path class="outline" fill="#A5ABB6" stroke="none" d="M 25 0.5 L 74.03130572816232 0.5 L 74.03130572816232 -0.5 L 25 -0.5 Z M 92.92974322816232 0.5 L 141.96104895632465 0.5 L 141.96104895632465 3.5 L 148.96104895632465 0 L 141.96104895632465 -3.5 L 141.96104895632465 -0.5 L 92.92974322816232 -0.5 Z"/><text text-anchor="middle" pointer-events="none" font-size="8px" fill="#000000" x="83.48052447816232" y="3" font-family="sans-serif">buy</text></g><g class="relationship" transform="translate(-249.92132208060747 183.43114196561984) rotate(335.1572409258222)"><path class="outline" fill="#A5ABB6" stroke="none" d="M 25 0.5 L 76.75384206667896 0.5 L 76.75384206667896 -0.5 L 25 -0.5 Z M 95.65227956667896 0.5 L 147.4061216333579 0.5 L 147.4061216333579 3.5 L 154.4061216333579 0 L 147.4061216333579 -3.5 L 147.4061216333579 -0.5 L 95.65227956667896 -0.5 Z"/><text text-anchor="middle" pointer-events="none" font-size="8px" fill="#000000" x="86.20306081667896" y="3" font-family="sans-serif">buy</text></g></g><g class="layer nodes"><g class="node" transform="translate(-63.54900879736712,361.82925630137163)"><circle class="outline" cx="0" cy="0" r="25" fill="#D9C8AE" stroke="#c0a378" stroke-width="2px"/><text text-anchor="middle" pointer-events="none" font-family="sans-serif" dy="1.5625" font-size="25" fill="#2A2C34"/><text text-anchor="middle" pointer-events="none" x="0" y="5" font-size="10px" fill="#2A2C34" font-family="sans-serif"> ecuador</text></g><g class="node" transform="translate(-19.979155049504158,154.4511614120882)"><circle class="outline" cx="0" cy="0" r="25" fill="#4C8EDA" stroke="#2870c2" stroke-width="2px"/><text text-anchor="middle" pointer-events="none" font-family="sans-serif" dy="1.5625" font-size="25" fill="#FFFFFF"/><text text-anchor="middle" pointer-events="none" x="0" y="5" font-size="10px" fill="#FFFFFF" font-family="sans-serif"> oil</text></g><g class="node" transform="translate(8.978689624681161,353.0727113041727)"><circle class="outline" cx="0" cy="0" r="25" fill="#D9C8AE" stroke="#c0a378" stroke-width="2px"/><text text-anchor="middle" pointer-events="none" font-family="sans-serif" dy="1.5625" font-size="25" fill="#2A2C34"/><text text-anchor="middle" pointer-events="none" x="0" y="5" font-size="10px" fill="#2A2C34" font-family="sans-serif"> egypt</text></g><g class="node" transform="translate(103.78231637051427,327.8661843090399)"><circle class="outline" cx="0" cy="0" r="25" fill="#ECB5C9" stroke="#da7298" stroke-width="2px"/><text text-anchor="middle" pointer-events="none" font-family="sans-serif" dy="1.5625" font-size="25" fill="#2A2C34"/><text text-anchor="middle" pointer-events="none" x="0" y="5" font-size="10px" fill="#2A2C34" font-family="sans-serif"> corp</text></g><g class="node" transform="translate(-219.99110333499834,295.73828098778216)"><circle class="outline" cx="0" cy="0" r="25" fill="#D9C8AE" stroke="#c0a378" stroke-width="2px"/><text text-anchor="middle" pointer-events="none" font-family="sans-serif" dy="1.5625" font-size="25" fill="#2A2C34"/><text text-anchor="middle" pointer-events="none" x="0" y="5" font-size="10px" fill="#2A2C34" font-family="sans-serif"> india</text></g><g class="node" transform="translate(-146.66146089307463,336.711442180952)"><circle class="outline" cx="0" cy="0" r="25" fill="#D9C8AE" stroke="#c0a378" stroke-width="2px"/><text text-anchor="middle" pointer-events="none" font-family="sans-serif" dy="1.5625" font-size="25" fill="#2A2C34"/><text text-anchor="middle" pointer-events="none" x="0" y="5" font-size="10px" fill="#2A2C34" font-family="sans-serif"> indonesia</text></g><g class="node" transform="translate(190.43918179067578,275.89945183476226)"><circle class="outline" cx="0" cy="0" r="25" fill="#ECB5C9" stroke="#da7298" stroke-width="2px"/><text text-anchor="middle" pointer-events="none" font-family="sans-serif" dy="1.5625" font-size="25" fill="#2A2C34"/><text text-anchor="middle" pointer-events="none" x="0" y="5" font-size="10px" fill="#2A2C34" font-family="sans-serif"> ajinomoto</text></g><g class="node" transform="translate(68.65062791660841,133.9446746869382)"><circle class="outline" cx="0" cy="0" r="25" fill="#4C8EDA" stroke="#2870c2" stroke-width="2px"/><text text-anchor="middle" pointer-events="none" font-family="sans-serif" dy="1.5625" font-size="25" fill="#FFFFFF"/><text text-anchor="middle" pointer-events="none" x="0" y="5" font-size="10px" fill="#FFFFFF" font-family="sans-serif"> tin</text></g><g class="node" transform="translate(310.1079164895923,85.32846806664782)"><circle class="outline" cx="0" cy="0" r="25" fill="#FFC454" stroke="#d7a013" stroke-width="2px"/><text text-anchor="middle" pointer-events="none" font-family="sans-serif" dy="1.5625" font-size="25" fill="#2A2C34"/><text text-anchor="middle" pointer-events="none" x="0" y="5" font-size="10px" fill="#2A2C34" font-family="sans-serif"> soviets</text></g><g class="node" transform="translate(64.15848574187623,-6.224295020897557)"><circle class="outline" cx="0" cy="0" r="25" fill="#4C8EDA" stroke="#2870c2" stroke-width="2px"/><text text-anchor="middle" pointer-events="none" font-family="sans-serif" dy="1.5625" font-size="25" fill="#FFFFFF"/><text text-anchor="middle" pointer-events="none" x="0" y="5" font-size="10px" fill="#FFFFFF" font-family="sans-serif"> wheat</text></g><g class="node" transform="translate(287.72736955181074,-57.404702715067735)"><circle class="outline" cx="0" cy="0" r="25" fill="#D9C8AE" stroke="#c0a378" stroke-width="2px"/><text text-anchor="middle" pointer-events="none" font-family="sans-serif" dy="1.5625" font-size="25" fill="#2A2C34"/><text text-anchor="middle" pointer-events="none" x="0" y="5" font-size="10px" fill="#2A2C34" font-family="sans-serif"> moscow</text></g><g class="node" transform="translate(99.30512847521227,-182.72231106590573)"><circle class="outline" cx="0" cy="0" r="25" fill="#D9C8AE" stroke="#c0a378" stroke-width="2px"/><text text-anchor="middle" pointer-events="none" font-family="sans-serif" dy="1.5625" font-size="25" fill="#2A2C34"/><text text-anchor="middle" pointer-events="none" x="0" y="5" font-size="10px" fill="#2A2C34" font-family="sans-serif"> honduras</text></g><g class="node" transform="translate(178.97916203004598,-148.54751855054275)"><circle class="outline" cx="0" cy="0" r="25" fill="#D9C8AE" stroke="#c0a378" stroke-width="2px"/><text text-anchor="middle" pointer-events="none" font-family="sans-serif" dy="1.5625" font-size="25" fill="#2A2C34"/><text text-anchor="middle" pointer-events="none" x="0" y="5" font-size="10px" fill="#2A2C34" font-family="sans-serif"> banglad…</text></g><g class="node" transform="translate(323.51365806204353,16.049533709693016)"><circle class="outline" cx="0" cy="0" r="25" fill="#ECB5C9" stroke="#da7298" stroke-width="2px"/><text text-anchor="middle" pointer-events="none" font-family="sans-serif" dy="1.5625" font-size="25" fill="#2A2C34"/><text text-anchor="middle" pointer-events="none" x="0" y="5" font-size="10px" fill="#2A2C34" font-family="sans-serif"> union</text></g><g class="node" transform="translate(238.24399987884527,-103.12685937937572)"><circle class="outline" cx="0" cy="0" r="25" fill="#D9C8AE" stroke="#c0a378" stroke-width="2px"/><text text-anchor="middle" pointer-events="none" font-family="sans-serif" dy="1.5625" font-size="25" fill="#2A2C34"/><text text-anchor="middle" pointer-events="none" x="0" y="5" font-size="10px" fill="#2A2C34" font-family="sans-serif"> senegal</text></g><g class="node" transform="translate(240.78288078906897,223.79343871649618)"><circle class="outline" cx="0" cy="0" r="25" fill="#D9C8AE" stroke="#c0a378" stroke-width="2px"/><text text-anchor="middle" pointer-events="none" font-family="sans-serif" dy="1.5625" font-size="25" fill="#2A2C34"/><text text-anchor="middle" pointer-events="none" x="0" y="5" font-size="10px" fill="#2A2C34" font-family="sans-serif"> sudan</text></g><g class="node" transform="translate(112.40787111549366,61.01156634093847)"><circle class="outline" cx="0" cy="0" r="25" fill="#4C8EDA" stroke="#2870c2" stroke-width="2px"/><text text-anchor="middle" pointer-events="none" font-family="sans-serif" dy="1.5625" font-size="25" fill="#FFFFFF"/><text text-anchor="middle" pointer-events="none" x="0" y="5" font-size="10px" fill="#FFFFFF" font-family="sans-serif"> corn</text></g><g class="node" transform="translate(286.4380682080842,164.43179495285386)"><circle class="outline" cx="0" cy="0" r="25" fill="#D9C8AE" stroke="#c0a378" stroke-width="2px"/><text text-anchor="middle" pointer-events="none" font-family="sans-serif" dy="1.5625" font-size="25" fill="#2A2C34"/><text text-anchor="middle" pointer-events="none" x="0" y="5" font-size="10px" fill="#2A2C34" font-family="sans-serif"> portugal</text></g><g class="node" transform="translate(-13.898336203851144,-190.4962763533954)"><circle class="outline" cx="0" cy="0" r="25" fill="#D9C8AE" stroke="#c0a378" stroke-width="2px"/><text text-anchor="middle" pointer-events="none" font-family="sans-serif" dy="1.5625" font-size="25" fill="#2A2C34"/><text text-anchor="middle" pointer-events="none" x="0" y="5" font-size="10px" fill="#2A2C34" font-family="sans-serif"> japan</text></g><g class="node" transform="translate(-26.075337858232942,-29.267402586935077)"><circle class="outline" cx="0" cy="0" r="25" fill="#4C8EDA" stroke="#2870c2" stroke-width="2px"/><text text-anchor="middle" pointer-events="none" font-family="sans-serif" dy="1.5625" font-size="25" fill="#FFFFFF"/><text text-anchor="middle" pointer-events="none" x="0" y="5" font-size="10px" fill="#FFFFFF" font-family="sans-serif"> soybeans</text></g><g class="node" transform="translate(-140.26317443656345,-161.24327476201142)"><circle class="outline" cx="0" cy="0" r="25" fill="#D9C8AE" stroke="#c0a378" stroke-width="2px"/><text text-anchor="middle" pointer-events="none" font-family="sans-serif" dy="1.5625" font-size="25" fill="#2A2C34"/><text text-anchor="middle" pointer-events="none" x="0" y="5" font-size="10px" fill="#2A2C34" font-family="sans-serif"> argentina</text></g><g class="node" transform="translate(-255.08936175384613,-56.192131359000186)"><circle class="outline" cx="0" cy="0" r="25" fill="#ECB5C9" stroke="#da7298" stroke-width="2px"/><text text-anchor="middle" pointer-events="none" font-family="sans-serif" dy="1.5625" font-size="25" fill="#2A2C34"/><text text-anchor="middle" pointer-events="none" x="0" y="5" font-size="10px" fill="#2A2C34" font-family="sans-serif"> icco</text></g><g class="node" transform="translate(-102.29658047616496,19.536831316006385)"><circle class="outline" cx="0" cy="0" r="25" fill="#4C8EDA" stroke="#2870c2" stroke-width="2px"/><text text-anchor="middle" pointer-events="none" font-family="sans-serif" dy="1.5625" font-size="25" fill="#FFFFFF"/><text text-anchor="middle" pointer-events="none" x="0" y="5" font-size="10px" fill="#FFFFFF" font-family="sans-serif"> cocoa</text></g><g class="node" transform="translate(-270.5872328892077,63.59024054136839)"><circle class="outline" cx="0" cy="0" r="25" fill="#D9C8AE" stroke="#c0a378" stroke-width="2px"/><text text-anchor="middle" pointer-events="none" font-family="sans-serif" dy="1.5625" font-size="25" fill="#2A2C34"/><text text-anchor="middle" pointer-events="none" x="0" y="5" font-size="10px" fill="#2A2C34" font-family="sans-serif"> britain</text></g><g class="node" transform="translate(-249.92132208060747,183.43114196561984)"><circle class="outline" cx="0" cy="0" r="25" fill="#D9C8AE" stroke="#c0a378" stroke-width="2px"/><text text-anchor="middle" pointer-events="none" font-family="sans-serif" dy="1.5625" font-size="25" fill="#2A2C34"/><text text-anchor="middle" pointer-events="none" x="0" y="5" font-size="10px" fill="#2A2C34" font-family="sans-serif"> china</text></g><g class="node" transform="translate(-87.11669046178392,108.0573507449152)"><circle class="outline" cx="0" cy="0" r="25" fill="#4C8EDA" stroke="#2870c2" stroke-width="2px"/><text text-anchor="middle" pointer-events="none" font-family="sans-serif" dy="1.5625" font-size="25" fill="#FFFFFF"/><text text-anchor="middle" pointer-events="none" x="0" y="5" font-size="10px" fill="#FFFFFF" font-family="sans-serif"> cotton</text></g></g></svg>