<svg xmlns="http://www.w3.org/2000/svg" width="309.1219177246094" height="300.40484619140625" viewBox="-59.747825622558594 -55.654296875 309.1219177246094 300.40484619140625"><title>Neo4j Graph Visualization</title><desc>Created using Neo4j (http://www.neo4j.com/)</desc><g class="layer relationships"><g class="relationship" transform="translate(94.57661338461675 93.13077848941354) rotate(428.2249086105508)"><path class="outline" fill="#A5ABB6" stroke="none" d="M 25 0.5 L 43.866741143697645 0.5 L 43.866741143697645 -0.5 L 25 -0.5 Z M 75.21830364369765 0.5 L 94.08504478739529 0.5 L 94.08504478739529 3.5 L 101.08504478739529 0 L 94.08504478739529 -3.5 L 94.08504478739529 -0.5 L 75.21830364369765 -0.5 Z"/><text text-anchor="middle" pointer-events="none" font-size="8px" fill="#000000" x="59.542522393697645" y="3" font-family="sans-serif">believe</text></g><g class="relationship" transform="translate(94.57661338461675 93.13077848941354) rotate(395.9719502993233)"><path class="outline" fill="#A5ABB6" stroke="none" d="M 24.018736134675446,6.953439040707552 L 24.277555179777966,5.987513214418485 A 143.73359347710291 143.73359347710291 0 0 0 43.94135235494474,9.811232660735385 L 43.819340556495376,10.803761310719437 A 144.73359347710291 144.73359347710291 0 0 1 24.018736134675446,6.953439040707552 Z M 75.21476997184362,11.231810676457485 L 75.11986302557658,10.236324528110714 A 143.73359347710291 143.73359347710291 0 0 0 94.88059777014608,6.950124274779072 L 94.18343191553761,4.032255228511225 L 101.8051531872058,5.80971545507061 L 95.81015224295739,10.840616336469536 L 95.11298638834892,7.922747290201689 A 144.73359347710291 144.73359347710291 0 0 1 75.21476997184362,11.231810676457485"/><text text-anchor="middle" pointer-events="none" font-size="8px" fill="#000000" x="59.51222978062897" y="14.371712760026838" font-family="sans-serif">believe</text></g><g class="relationship" transform="translate(94.57661338461675 93.13077848941354) rotate(395.9719502993233)"><path class="outline" fill="#A5ABB6" stroke="none" d="M 24.018736134675446,-6.953439040707552 L 24.277555179777966,-5.987513214418485 A 143.73359347710291 143.73359347710291 0 0 1 48.12872519420024,-10.26381531271332 L 48.03584627094003,-11.259492723129966 A 144.73359347710291 144.73359347710291 0 0 0 24.018736134675446,-6.953439040707552 Z M 70.9874068813194,-11.57241728396329 L 70.9217078265236,-10.574577800780276 A 143.73359347710291 143.73359347710291 0 0 1 94.88059777014608,-6.950124274779072 L 94.18343191553761,-4.032255228511225 L 101.8051531872058,-5.80971545507061 L 95.81015224295739,-10.840616336469536 L 95.11298638834892,-7.922747290201689 A 144.73359347710291 144.73359347710291 0 0 0 70.9874068813194,-11.57241728396329"/><text text-anchor="middle" pointer-events="none" font-size="8px" fill="#000000" x="59.51222978062891" y="-8.371712760026838" font-family="sans-serif">want</text></g><g class="relationship" transform="translate(94.57661338461675 93.13077848941354) rotate(361.38800015568756)"><path class="outline" fill="#A5ABB6" stroke="none" d="M 25 0.5 L 50.19259220419418 0.5 L 50.19259220419418 -0.5 L 25 -0.5 Z M 68.64181095419417 0.5 L 93.83440315838835 0.5 L 93.83440315838835 3.5 L 100.83440315838835 0 L 93.83440315838835 -3.5 L 93.83440315838835 -0.5 L 68.64181095419417 -0.5 Z"/><text text-anchor="middle" pointer-events="none" font-size="8px" fill="#000000" x="59.41720157919418" y="3" font-family="sans-serif">say</text></g><g class="relationship" transform="translate(94.57661338461675 93.13077848941354) rotate(324.64496825563276)"><path class="outline" fill="#A5ABB6" stroke="none" d="M 25 0.5 L 41.79766074277004 0.5 L 41.79766074277004 -0.5 L 25 -0.5 Z M 77.59453574277003 0.5 L 94.39219648554008 0.5 L 94.39219648554008 3.5 L 101.39219648554008 0 L 94.39219648554008 -3.5 L 94.39219648554008 -0.5 L 77.59453574277003 -0.5 Z"/><text text-anchor="middle" pointer-events="none" font-size="8px" fill="#000000" x="59.69609824277004" y="3" font-family="sans-serif">succeed</text></g><g class="relationship" transform="translate(94.57661338461675 93.13077848941354) rotate(287.50825189439263)"><path class="outline" fill="#A5ABB6" stroke="none" d="M 24.018736134675446,-6.953439040707552 L 24.277555179777966,-5.987513214418485 A 142.70990652396227 142.70990652396227 0 0 1 49.85619070800406,-10.397584342587095 L 49.776606841112034,-11.394412516411705 A 143.70990652396227 143.70990652396227 0 0 0 24.018736134675446,-6.953439040707552 Z M 68.72549354547273,-11.653772951876988 L 68.67322229421254,-10.655140028179943 A 142.70990652396227 142.70990652396227 0 0 1 94.36297754726992,-6.946798366554563 L 93.6661223371085,-4.028855115552086 L 101.28765433463593,-5.807126751345033 L 95.29211782748513,-10.837389367891198 L 94.59526261732371,-7.9194461168887225 A 143.70990652396227 143.70990652396227 0 0 0 68.72549354547273,-11.653772951876988"/><text text-anchor="middle" pointer-events="none" font-size="8px" fill="#000000" x="59.253613430703076" y="-8.33682247758216" font-family="sans-serif">buy</text></g><g class="relationship" transform="translate(94.57661338461675 93.13077848941354) rotate(287.50825189439263)"><path class="outline" fill="#A5ABB6" stroke="none" d="M 24.018736134675446,6.953439040707552 L 24.277555179777966,5.987513214418485 A 142.70990652396227 142.70990652396227 0 0 0 48.75260833069572,10.305166906190465 L 48.665291417064424,11.30134749051939 A 143.70990652396227 143.70990652396227 0 0 1 24.018736134675446,6.953439040707552 Z M 69.83893980451724,11.591159063718294 L 69.77892067918228,10.59296183641598 A 142.70990652396227 142.70990652396227 0 0 0 94.36297754726992,6.946798366554563 L 93.6661223371085,4.028855115552086 L 101.28765433463593,5.807126751345033 L 95.29211782748513,10.837389367891198 L 94.59526261732371,7.9194461168887225 A 143.70990652396227 143.70990652396227 0 0 1 69.83893980451724,11.591159063718294"/><text text-anchor="middle" pointer-events="none" font-size="8px" fill="#000000" x="59.253613430703105" y="14.33682247758216" font-family="sans-serif">face</text></g><g class="relationship" transform="translate(94.57661338461675 93.13077848941354) rotate(250.0118246026488)"><path class="outline" fill="#A5ABB6" stroke="none" d="M 25 0.5 L 44.28642285618605 0.5 L 44.28642285618605 -0.5 L 25 -0.5 Z M 74.29814160618605 0.5 L 93.5845644623721 0.5 L 93.5845644623721 3.5 L 100.5845644623721 0 L 93.5845644623721 -3.5 L 93.5845644623721 -0.5 L 74.29814160618605 -0.5 Z"/><text text-anchor="middle" pointer-events="none" font-size="8px" fill="#000000" x="59.29228223118605" y="3" transform="rotate(180 59.29228223118605 0)" font-family="sans-serif">accord</text></g><g class="relationship" transform="translate(94.57661338461675 93.13077848941354) rotate(214.29171191823252)"><path class="outline" fill="#A5ABB6" stroke="none" d="M 25 0.5 L 45.383682483609675 0.5 L 45.383682483609675 -0.5 L 25 -0.5 Z M 73.17274498360968 0.5 L 93.55642746721935 0.5 L 93.55642746721935 3.5 L 100.55642746721935 0 L 93.55642746721935 -3.5 L 93.55642746721935 -0.5 L 73.17274498360968 -0.5 Z"/><text text-anchor="middle" pointer-events="none" font-size="8px" fill="#000000" x="59.278213733609675" y="3" transform="rotate(180 59.278213733609675 0)" font-family="sans-serif">award</text></g><g class="relationship" transform="translate(94.57661338461675 93.13077848941354) rotate(536.7716588463161)"><path class="outline" fill="#A5ABB6" stroke="none" d="M 25 0.5 L 50.03721072452597 0.5 L 50.03721072452597 -0.5 L 25 -0.5 Z M 68.48642947452598 0.5 L 93.52364019905194 0.5 L 93.52364019905194 3.5 L 100.52364019905194 0 L 93.52364019905194 -3.5 L 93.52364019905194 -0.5 L 68.48642947452598 -0.5 Z"/><text text-anchor="middle" pointer-events="none" font-size="8px" fill="#000000" x="59.26182009952597" y="3" transform="rotate(180 59.26182009952597 0)" font-family="sans-serif">say</text></g><g class="relationship" transform="translate(94.57661338461675 93.13077848941354) rotate(499.5992051040551)"><path class="outline" fill="#A5ABB6" stroke="none" d="M 25 0.5 L 50.42325006433562 0.5 L 50.42325006433562 -0.5 L 25 -0.5 Z M 68.87246881433562 0.5 L 94.29571887867124 0.5 L 94.29571887867124 3.5 L 101.29571887867124 0 L 94.29571887867124 -3.5 L 94.29571887867124 -0.5 L 68.87246881433562 -0.5 Z"/><text text-anchor="middle" pointer-events="none" font-size="8px" fill="#000000" x="59.64785943933562" y="3" transform="rotate(180 59.64785943933562 0)" font-family="sans-serif">say</text></g><g class="relationship" transform="translate(94.57661338461675 93.13077848941354) rotate(462.8236517398584)"><path class="outline" fill="#A5ABB6" stroke="none" d="M 17.324116139070416,18.03122292025696 L 18.031222920256962,17.324116139070412 A 61.17971691353135 61.17971691353135 0 0 0 41.37362733551934,31.910075081976345 L 41.04805884174026,32.85559354073769 A 62.17971691353135 62.17971691353135 0 0 1 17.324116139070416,18.03122292025696 Z M 77.0311442601326,34.2182466896748 L 76.77801784816884,33.250813477733864 A 61.17971691353135 61.17971691353135 0 0 0 101.15670553762138,20.472017419030426 L 99.2018963985201,18.19633703073198 L 106.79242796683464,16.290076159177215 L 103.76311772308974,23.50625793676169 L 101.80830858398846,21.23057754846324 A 62.17971691353135 62.17971691353135 0 0 1 77.0311442601326,34.2182466896748"/><text text-anchor="middle" pointer-events="none" font-size="8px" fill="#000000" x="58.95772285599545" y="38.69906099185253" transform="rotate(180 58.95772285599545 35.69906099185253)" font-family="sans-serif">describe</text></g><g class="relationship" transform="translate(94.57661338461675 93.13077848941354) rotate(462.8236517398584)"><path class="outline" fill="#A5ABB6" stroke="none" d="M 24.018736134675446,6.953439040707552 L 24.277555179777966,5.987513214418485 A 143.012120404233 143.012120404233 0 0 0 47.28425476127383,10.172882856143957 L 47.18630809199838,11.168074521089864 A 144.012120404233 144.012120404233 0 0 1 24.018736134675446,6.953439040707552 Z M 71.47396220069727,11.500125875127054 L 71.4032588005166,10.50262849207138 A 143.012120404233 143.012120404233 0 0 0 94.51577959239418,6.947782881344578 L 93.81883242712743,4.029861592339914 L 101.44042046094953,5.8078930438895995 L 95.44504247941651,10.838344600017463 L 94.74809531414977,7.920423311012799 A 144.012120404233 144.012120404233 0 0 1 71.47396220069727,11.500125875127054"/><text text-anchor="middle" pointer-events="none" font-size="8px" fill="#000000" x="59.329957106520425" y="14.34712279143011" transform="rotate(180 59.329957106520425 11.34712279143011)" font-family="sans-serif">trade</text></g><g class="relationship" transform="translate(94.57661338461675 93.13077848941354) rotate(462.8236517398584)"><path class="outline" fill="#A5ABB6" stroke="none" d="M 24.018736134675446,-6.953439040707552 L 24.277555179777966,-5.987513214418485 A 143.012120404233 143.012120404233 0 0 1 37.6182223944986,-8.887512067371603 L 37.45268682199276,-9.87371588719546 A 144.012120404233 144.012120404233 0 0 0 24.018736134675446,-6.953439040707552 Z M 81.23933079208548,-10.472349841464649 L 81.10081803971988,-9.48198919128103 A 143.012120404233 143.012120404233 0 0 1 94.51577959239418,-6.947782881344578 L 93.81883242712743,-4.029861592339914 L 101.44042046094953,-5.8078930438895995 L 95.44504247941651,-10.838344600017463 L 94.74809531414977,-7.920423311012799 A 144.012120404233 144.012120404233 0 0 0 81.23933079208548,-10.472349841464649"/><text text-anchor="middle" pointer-events="none" font-size="8px" fill="#000000" x="59.3299571065204" y="-8.34712279143011" transform="rotate(180 59.3299571065204 -11.34712279143011)" font-family="sans-serif">encourage</text></g><g class="relationship" transform="translate(94.57661338461675 93.13077848941354) rotate(462.8236517398584)"><path class="outline" fill="#A5ABB6" stroke="none" d="M 17.324116139070416,-18.03122292025696 L 18.031222920256962,-17.324116139070412 A 61.17971691353135 61.17971691353135 0 0 1 46.22829551404444,-33.3597975508194 L 45.98207796243115,-34.32901213865718 A 62.17971691353135 62.17971691353135 0 0 0 17.324116139070416,-18.03122292025696 Z M 71.99982168101708,-35.31428507993331 L 71.82761108579967,-34.32922492395558 A 61.17971691353135 61.17971691353135 0 0 1 101.15670553762138,-20.472017419030426 L 99.2018963985201,-18.19633703073198 L 106.79242796683464,-16.290076159177215 L 103.76311772308974,-23.50625793676169 L 101.80830858398846,-21.23057754846324 A 62.17971691353135 62.17971691353135 0 0 0 71.99982168101708,-35.31428507993331"/><text text-anchor="middle" pointer-events="none" font-size="8px" fill="#000000" x="58.95772285599546" y="-32.69906099185253" transform="rotate(180 58.95772285599546 -35.69906099185253)" font-family="sans-serif">adopt</text></g></g><g class="layer nodes"><g class="node" transform="translate(94.57661338461675,93.13077848941354)"><circle class="outline" cx="0" cy="0" r="25" fill="#ECB5C9" stroke="#da7298" stroke-width="2px"/><text text-anchor="middle" pointer-events="none" font-family="sans-serif" dy="1.5625" font-size="25" fill="#2A2C34"/><text text-anchor="middle" pointer-events="none" x="0" y="5" font-size="10px" fill="#2A2C34" font-family="sans-serif"> opec</text></g><g class="node" transform="translate(141.34964524013205,210.21930060017564)"><circle class="outline" cx="0" cy="0" r="25" fill="#D9C8AE" stroke="#c0a378" stroke-width="2px"/><text text-anchor="middle" pointer-events="none" font-family="sans-serif" dy="1.5625" font-size="25" fill="#2A2C34"/><text text-anchor="middle" pointer-events="none" x="0" y="5" font-size="10px" fill="#2A2C34" font-family="sans-serif"> tokyo</text></g><g class="node" transform="translate(196.6467059020342,167.21272223559552)"><circle class="outline" cx="0" cy="0" r="25" fill="#D9C8AE" stroke="#c0a378" stroke-width="2px"/><text text-anchor="middle" pointer-events="none" font-family="sans-serif" dy="1.5625" font-size="25" fill="#2A2C34"/><text text-anchor="middle" pointer-events="none" x="0" y="5" font-size="10px" fill="#2A2C34" font-family="sans-serif"> dlr</text></g><g class="node" transform="translate(220.37409482308527,96.17884049107717)"><circle class="outline" cx="0" cy="0" r="25" fill="#D9C8AE" stroke="#c0a378" stroke-width="2px"/><text text-anchor="middle" pointer-events="none" font-family="sans-serif" dy="1.5625" font-size="25" fill="#2A2C34"/><text text-anchor="middle" pointer-events="none" x="0" y="5" font-size="10px" fill="#2A2C34" font-family="sans-serif"> luxembo…</text></g><g class="node" transform="translate(197.6598377998156,19.995040463431174)"><circle class="outline" cx="0" cy="0" r="25" fill="#D9C8AE" stroke="#c0a378" stroke-width="2px"/><text text-anchor="middle" pointer-events="none" font-family="sans-serif" dy="1.5625" font-size="25" fill="#2A2C34"/><text text-anchor="middle" pointer-events="none" x="0" y="5" font-size="10px" fill="#2A2C34" font-family="sans-serif"> ecuador</text></g><g class="node" transform="translate(132.3636711116293,-26.654299563331826)"><circle class="outline" cx="0" cy="0" r="25" fill="#D9C8AE" stroke="#c0a378" stroke-width="2px"/><text text-anchor="middle" pointer-events="none" font-family="sans-serif" dy="1.5625" font-size="25" fill="#2A2C34"/><text text-anchor="middle" pointer-events="none" x="0" y="5" font-size="10px" fill="#2A2C34" font-family="sans-serif"> qatar</text></g><g class="node" transform="translate(51.64851844277573,-24.88897195883971)"><circle class="outline" cx="0" cy="0" r="25" fill="#D9C8AE" stroke="#c0a378" stroke-width="2px"/><text text-anchor="middle" pointer-events="none" font-family="sans-serif" dy="1.5625" font-size="25" fill="#2A2C34"/><text text-anchor="middle" pointer-events="none" x="0" y="5" font-size="10px" fill="#2A2C34" font-family="sans-serif"> vienna</text></g><g class="node" transform="translate(-9.155571041180654,22.39146556807207)"><circle class="outline" cx="0" cy="0" r="25" fill="#ECB5C9" stroke="#da7298" stroke-width="2px"/><text text-anchor="middle" pointer-events="none" font-family="sans-serif" dy="1.5625" font-size="25" fill="#2A2C34"/><text text-anchor="middle" pointer-events="none" x="0" y="5" font-size="10px" fill="#2A2C34" font-family="sans-serif"> reuters</text></g><g class="node" transform="translate(-30.74782457912474,100.19968914759568)"><circle class="outline" cx="0" cy="0" r="25" fill="#ECB5C9" stroke="#da7298" stroke-width="2px"/><text text-anchor="middle" pointer-events="none" font-family="sans-serif" dy="1.5625" font-size="25" fill="#2A2C34"/><text text-anchor="middle" pointer-events="none" x="0" y="5" font-size="10px" fill="#2A2C34" font-family="sans-serif"> gatt</text></g><g class="node" transform="translate(-1.6012789937793643,174.98688165057075)"><circle class="outline" cx="0" cy="0" r="25" fill="#8DCC93" stroke="#5db665" stroke-width="2px"/><text text-anchor="middle" pointer-events="none" font-family="sans-serif" dy="1.5625" font-size="25" fill="#2A2C34"/><text text-anchor="middle" pointer-events="none" x="0" y="5" font-size="10px" fill="#2A2C34" font-family="sans-serif"> rothschild</text></g><g class="node" transform="translate(66.66484506914813,215.75056962580274)"><circle class="outline" cx="0" cy="0" r="25" fill="#4C8EDA" stroke="#2870c2" stroke-width="2px"/><text text-anchor="middle" pointer-events="none" font-family="sans-serif" dy="1.5625" font-size="25" fill="#FFFFFF"/><text text-anchor="middle" pointer-events="none" x="0" y="5" font-size="10px" fill="#FFFFFF" font-family="sans-serif"> oil</text></g></g></svg>