<svg xmlns="http://www.w3.org/2000/svg" width="448.8828125" height="464.9153747558594" viewBox="-160.38291931152344 -152.98858642578125 448.8828125 464.9153747558594"><title>Neo4j Graph Visualization</title><desc>Created using Neo4j (http://www.neo4j.com/)</desc><g class="layer relationships"><g class="relationship" transform="translate(-46.42062124453829 240.93659681060447) rotate(302.2372813549391)"><path class="outline" fill="#A5ABB6" stroke="none" d="M 25 0.5 L 85.95907227629422 0.5 L 85.95907227629422 -0.5 L 25 -0.5 Z M 104.40829102629422 0.5 L 165.36736330258844 0.5 L 165.36736330258844 3.5 L 172.36736330258844 0 L 165.36736330258844 -3.5 L 165.36736330258844 -0.5 L 104.40829102629422 -0.5 Z"/><text text-anchor="middle" pointer-events="none" font-size="8px" fill="#000000" x="95.18368165129422" y="3" font-family="sans-serif">say</text></g><g class="relationship" transform="translate(10.412566593018813 260.0994037542843) rotate(284.59165595401214)"><path class="outline" fill="#A5ABB6" stroke="none" d="M 25 0.5 L 83.42937986481351 0.5 L 83.42937986481351 -0.5 L 25 -0.5 Z M 101.87859861481351 0.5 L 160.30797847962702 0.5 L 160.30797847962702 3.5 L 167.30797847962702 0 L 160.30797847962702 -3.5 L 160.30797847962702 -0.5 L 101.87859861481351 -0.5 Z"/><text text-anchor="middle" pointer-events="none" font-size="8px" fill="#000000" x="92.65398923981351" y="3" font-family="sans-serif">say</text></g><g class="relationship" transform="translate(170.89498925298483 144.70278519658007) rotate(212.25734449358822)"><path class="outline" fill="#A5ABB6" stroke="none" d="M 25 0.5 L 53.51634673762908 0.5 L 53.51634673762908 -0.5 L 25 -0.5 Z M 71.96556548762908 0.5 L 100.48191222525816 0.5 L 100.48191222525816 3.5 L 107.48191222525816 0 L 100.48191222525816 -3.5 L 100.48191222525816 -0.5 L 71.96556548762908 -0.5 Z"/><text text-anchor="middle" pointer-events="none" font-size="8px" fill="#000000" x="62.74095611262908" y="3" transform="rotate(180 62.74095611262908 0)" font-family="sans-serif">say</text></g><g class="relationship" transform="translate(65.90887111031648 282.92677922313254) rotate(268.067827890972)"><path class="outline" fill="#A5ABB6" stroke="none" d="M 25 0.5 L 91.80113327320983 0.5 L 91.80113327320983 -0.5 L 25 -0.5 Z M 110.25035202320983 0.5 L 177.05148529641966 0.5 L 177.05148529641966 3.5 L 184.05148529641966 0 L 177.05148529641966 -3.5 L 177.05148529641966 -0.5 L 110.25035202320983 -0.5 Z"/><text text-anchor="middle" pointer-events="none" font-size="8px" fill="#000000" x="101.02574264820983" y="3" transform="rotate(180 101.02574264820983 0)" font-family="sans-serif">say</text></g><g class="relationship" transform="translate(116.15263256847275 -50.3481464013299) rotate(474.7384593742427)"><path class="outline" fill="#A5ABB6" stroke="none" d="M 25 0.5 L 55.72866951931189 0.5 L 55.72866951931189 -0.5 L 25 -0.5 Z M 74.1778882693119 0.5 L 104.90655778862379 0.5 L 104.90655778862379 3.5 L 111.90655778862379 0 L 104.90655778862379 -3.5 L 104.90655778862379 -0.5 L 74.1778882693119 -0.5 Z"/><text text-anchor="middle" pointer-events="none" font-size="8px" fill="#000000" x="64.9532788943119" y="3" transform="rotate(180 64.9532788943119 0)" font-family="sans-serif">say</text></g><g class="relationship" transform="translate(152.52909797335815 207.74891962977173) rotate(234.99638183509387)"><path class="outline" fill="#A5ABB6" stroke="none" d="M 25 0.5 L 68.92121171030581 0.5 L 68.92121171030581 -0.5 L 25 -0.5 Z M 87.37043046030581 0.5 L 131.29164217061162 0.5 L 131.29164217061162 3.5 L 138.29164217061162 0 L 131.29164217061162 -3.5 L 131.29164217061162 -0.5 L 87.37043046030581 -0.5 Z"/><text text-anchor="middle" pointer-events="none" font-size="8px" fill="#000000" x="78.14582108530581" y="3" transform="rotate(180 78.14582108530581 0)" font-family="sans-serif">say</text></g><g class="relationship" transform="translate(131.28302714496428 263.8428696907574) rotate(249.11937790147772)"><path class="outline" fill="#A5ABB6" stroke="none" d="M 25 0.5 L 88.87210643679232 0.5 L 88.87210643679232 -0.5 L 25 -0.5 Z M 107.32132518679232 0.5 L 171.19343162358464 0.5 L 171.19343162358464 3.5 L 178.19343162358464 0 L 171.19343162358464 -3.5 L 171.19343162358464 -0.5 L 107.32132518679232 -0.5 Z"/><text text-anchor="middle" pointer-events="none" font-size="8px" fill="#000000" x="98.09671581179232" y="3" transform="rotate(180 98.09671581179232 0)" font-family="sans-serif">say</text></g><g class="relationship" transform="translate(207.7328441714325 231.06126163380182) rotate(226.5343170806534)"><path class="outline" fill="#A5ABB6" stroke="none" d="M 25 0.5 L 95.48014753962 0.5 L 95.48014753962 -0.5 L 25 -0.5 Z M 113.92936628962 0.5 L 184.40951382924 0.5 L 184.40951382924 3.5 L 191.40951382924 0 L 184.40951382924 -3.5 L 184.40951382924 -0.5 L 113.92936628962 -0.5 Z"/><text text-anchor="middle" pointer-events="none" font-size="8px" fill="#000000" x="104.70475691462" y="3" transform="rotate(180 104.70475691462 0)" font-family="sans-serif">say</text></g><g class="relationship" transform="translate(193.45479986323048 37.61936744673736) rotate(524.8768165868526)"><path class="outline" fill="#A5ABB6" stroke="none" d="M 25 0.5 L 56.98689234764838 0.5 L 56.98689234764838 -0.5 L 25 -0.5 Z M 75.43611109764838 0.5 L 107.42300344529676 0.5 L 107.42300344529676 3.5 L 114.42300344529676 0 L 107.42300344529676 -3.5 L 107.42300344529676 -0.5 L 75.43611109764838 -0.5 Z"/><text text-anchor="middle" pointer-events="none" font-size="8px" fill="#000000" x="66.21150172264838" y="3" transform="rotate(180 66.21150172264838 0)" font-family="sans-serif">say</text></g><g class="relationship" transform="translate(2.6129483584835196 -42.656139749753414) rotate(424.25715561350165)"><path class="outline" fill="#A5ABB6" stroke="none" d="M 25 0.5 L 52.026969452619525 0.5 L 52.026969452619525 -0.5 L 25 -0.5 Z M 70.47618820261953 0.5 L 97.50315765523905 0.5 L 97.50315765523905 3.5 L 104.50315765523905 0 L 97.50315765523905 -3.5 L 97.50315765523905 -0.5 L 70.47618820261953 -0.5 Z"/><text text-anchor="middle" pointer-events="none" font-size="8px" fill="#000000" x="61.251578827619525" y="3" font-family="sans-serif">say</text></g><g class="relationship" transform="translate(226.97733731529726 174.24049083385316) rotate(210.80717555837998)"><path class="outline" fill="#A5ABB6" stroke="none" d="M 25 0.5 L 79.139544363054 0.5 L 79.139544363054 -0.5 L 25 -0.5 Z M 109.596575613054 0.5 L 163.736119976108 0.5 L 163.736119976108 3.5 L 170.736119976108 0 L 163.736119976108 -3.5 L 163.736119976108 -0.5 L 109.596575613054 -0.5 Z"/><text text-anchor="middle" pointer-events="none" font-size="8px" fill="#000000" x="94.368059988054" y="3" transform="rotate(180 94.368059988054 0)" font-family="sans-serif">restate</text></g><g class="relationship" transform="translate(58.09571940673383 -65.4890501995207) rotate(449.6858884601777)"><path class="outline" fill="#A5ABB6" stroke="none" d="M 25 0.5 L 57.018039762376816 0.5 L 57.018039762376816 -0.5 L 25 -0.5 Z M 75.46725851237682 0.5 L 107.48529827475363 0.5 L 107.48529827475363 3.5 L 114.48529827475363 0 L 107.48529827475363 -3.5 L 107.48529827475363 -0.5 L 75.46725851237682 -0.5 Z"/><text text-anchor="middle" pointer-events="none" font-size="8px" fill="#000000" x="66.24264913737682" y="3" font-family="sans-serif">say</text></g><g class="relationship" transform="translate(259.49987367816874 123.82484744837029) rotate(193.94773915504055)"><path class="outline" fill="#A5ABB6" stroke="none" d="M 25 0.5 L 90.6428073341363 0.5 L 90.6428073341363 -0.5 L 25 -0.5 Z M 109.0920260841363 0.5 L 174.7348334182726 0.5 L 174.7348334182726 3.5 L 181.7348334182726 0 L 174.7348334182726 -3.5 L 174.7348334182726 -0.5 L 109.0920260841363 -0.5 Z"/><text text-anchor="middle" pointer-events="none" font-size="8px" fill="#000000" x="99.8674167091363" y="3" transform="rotate(180 99.8674167091363 0)" font-family="sans-serif">say</text></g><g class="relationship" transform="translate(244.47497683719428 1.2315020076949197) rotate(518.594354751431)"><path class="outline" fill="#A5ABB6" stroke="none" d="M 25 0.5 L 86.95885150111059 0.5 L 86.95885150111059 -0.5 L 25 -0.5 Z M 105.40807025111059 0.5 L 167.36692175222117 0.5 L 167.36692175222117 3.5 L 174.36692175222117 0 L 167.36692175222117 -3.5 L 167.36692175222117 -0.5 L 105.40807025111059 -0.5 Z"/><text text-anchor="middle" pointer-events="none" font-size="8px" fill="#000000" x="96.18346087611059" y="3" transform="rotate(180 96.18346087611059 0)" font-family="sans-serif">say</text></g><g class="relationship" transform="translate(72.84417358824726 223.38659980033495) rotate(264.6524560499782)"><path class="outline" fill="#A5ABB6" stroke="none" d="M 25 0.5 L 62.29813556842076 0.5 L 62.29813556842076 -0.5 L 25 -0.5 Z M 80.74735431842076 0.5 L 118.04548988684152 0.5 L 118.04548988684152 3.5 L 125.04548988684152 0 L 118.04548988684152 -3.5 L 118.04548988684152 -0.5 L 80.74735431842076 -0.5 Z"/><text text-anchor="middle" pointer-events="none" font-size="8px" fill="#000000" x="71.52274494342076" y="3" transform="rotate(180 71.52274494342076 0)" font-family="sans-serif">say</text></g><g class="relationship" transform="translate(258.99130122199307 59.99307185450792) rotate(535.9981296156534)"><path class="outline" fill="#A5ABB6" stroke="none" d="M 25 0.5 L 87.58541332495149 0.5 L 87.58541332495149 -0.5 L 25 -0.5 Z M 106.03463207495149 0.5 L 168.62004539990298 0.5 L 168.62004539990298 3.5 L 175.62004539990298 0 L 168.62004539990298 -3.5 L 168.62004539990298 -0.5 L 106.03463207495149 -0.5 Z"/><text text-anchor="middle" pointer-events="none" font-size="8px" fill="#000000" x="96.81002269995149" y="3" transform="rotate(180 96.81002269995149 0)" font-family="sans-serif">say</text></g><g class="relationship" transform="translate(213.325853344281 -50.043964843031155) rotate(501.2350015858802)"><path class="outline" fill="#A5ABB6" stroke="none" d="M 25 0.5 L 86.32717839066173 0.5 L 86.32717839066173 -0.5 L 25 -0.5 Z M 104.77639714066173 0.5 L 166.10357553132346 0.5 L 166.10357553132346 3.5 L 173.10357553132346 0 L 166.10357553132346 -3.5 L 166.10357553132346 -0.5 L 104.77639714066173 -0.5 Z"/><text text-anchor="middle" pointer-events="none" font-size="8px" fill="#000000" x="95.55178776566173" y="3" transform="rotate(180 95.55178776566173 0)" font-family="sans-serif">say</text></g><g class="relationship" transform="translate(44.85403101793496 -123.98859667449292) rotate(445.95332540334675)"><path class="outline" fill="#A5ABB6" stroke="none" d="M 25 0.5 L 86.51417775914393 0.5 L 86.51417775914393 -0.5 L 25 -0.5 Z M 104.96339650914393 0.5 L 166.47757426828787 0.5 L 166.47757426828787 3.5 L 173.47757426828787 0 L 166.47757426828787 -3.5 L 166.47757426828787 -0.5 L 104.96339650914393 -0.5 Z"/><text text-anchor="middle" pointer-events="none" font-size="8px" fill="#000000" x="95.73878713414393" y="3" font-family="sans-serif">say</text></g><g class="relationship" transform="translate(206.23254624128018 96.22769864722) rotate(188.57932469120482)"><path class="outline" fill="#A5ABB6" stroke="none" d="M 25 0.5 L 61.79531450484295 0.5 L 61.79531450484295 -0.5 L 25 -0.5 Z M 80.24453325484295 0.5 L 117.0398477596859 0.5 L 117.0398477596859 3.5 L 124.0398477596859 0 L 117.0398477596859 -3.5 L 117.0398477596859 -0.5 L 80.24453325484295 -0.5 Z"/><text text-anchor="middle" pointer-events="none" font-size="8px" fill="#000000" x="71.01992387984295" y="3" transform="rotate(180 71.01992387984295 0)" font-family="sans-serif">say</text></g><g class="relationship" transform="translate(168.53166976087132 -89.96416408811484) rotate(483.77845303853917)"><path class="outline" fill="#A5ABB6" stroke="none" d="M 25 0.5 L 85.90362432003751 0.5 L 85.90362432003751 -0.5 L 25 -0.5 Z M 104.35284307003751 0.5 L 165.25646739007502 0.5 L 165.25646739007502 3.5 L 172.25646739007502 0 L 165.25646739007502 -3.5 L 165.25646739007502 -0.5 L 104.35284307003751 -0.5 Z"/><text text-anchor="middle" pointer-events="none" font-size="8px" fill="#000000" x="95.12823369503751" y="3" transform="rotate(180 95.12823369503751 0)" font-family="sans-serif">say</text></g><g class="relationship" transform="translate(110.28197256823097 -113.96158760946417) rotate(465.3007622415513)"><path class="outline" fill="#A5ABB6" stroke="none" d="M 25 0.5 L 84.70682395725082 0.5 L 84.70682395725082 -0.5 L 25 -0.5 Z M 103.15604270725082 0.5 L 162.86286666450164 0.5 L 162.86286666450164 3.5 L 169.86286666450164 0 L 162.86286666450164 -3.5 L 162.86286666450164 -0.5 L 103.15604270725082 -0.5 Z"/><text text-anchor="middle" pointer-events="none" font-size="8px" fill="#000000" x="93.93143333225082" y="3" transform="rotate(180 93.93143333225082 0)" font-family="sans-serif">say</text></g><g class="relationship" transform="translate(-13.517203122354159 -101.78330042088261) rotate(427.6202369412213)"><path class="outline" fill="#A5ABB6" stroke="none" d="M 25 0.5 L 82.32305247200847 0.5 L 82.32305247200847 -0.5 L 25 -0.5 Z M 100.77227122200847 0.5 L 158.09532369401694 0.5 L 158.09532369401694 3.5 L 165.09532369401694 0 L 158.09532369401694 -3.5 L 158.09532369401694 -0.5 L 100.77227122200847 -0.5 Z"/><text text-anchor="middle" pointer-events="none" font-size="8px" fill="#000000" x="91.54766184700847" y="3" font-family="sans-serif">say</text></g><g class="relationship" transform="translate(-48.154376992911835 -7.28488249031728) rotate(397.2171123014445)"><path class="outline" fill="#A5ABB6" stroke="none" d="M 25 0.5 L 54.46625075536676 0.5 L 54.46625075536676 -0.5 L 25 -0.5 Z M 72.91546950536676 0.5 L 102.38172026073352 0.5 L 102.38172026073352 3.5 L 109.38172026073352 0 L 102.38172026073352 -3.5 L 102.38172026073352 -0.5 L 72.91546950536676 -0.5 Z"/><text text-anchor="middle" pointer-events="none" font-size="8px" fill="#000000" x="63.69086013036676" y="3" font-family="sans-serif">say</text></g><g class="relationship" transform="translate(-65.81144722510514 -71.59401701353747) rotate(409.4254862484884)"><path class="outline" fill="#A5ABB6" stroke="none" d="M 25 0.5 L 83.11247595757264 0.5 L 83.11247595757264 -0.5 L 25 -0.5 Z M 101.56169470757264 0.5 L 159.67417066514528 0.5 L 159.67417066514528 3.5 L 166.67417066514528 0 L 159.67417066514528 -3.5 L 159.67417066514528 -0.5 L 101.56169470757264 -0.5 Z"/><text text-anchor="middle" pointer-events="none" font-size="8px" fill="#000000" x="92.33708533257264" y="3" font-family="sans-serif">say</text></g><g class="relationship" transform="translate(-72.07045418226689 53.144769054528325) rotate(369.0477933555813)"><path class="outline" fill="#A5ABB6" stroke="none" d="M 25 0.5 L 53.565640245377594 0.5 L 53.565640245377594 -0.5 L 25 -0.5 Z M 72.0148589953776 0.5 L 100.58049924075519 0.5 L 100.58049924075519 3.5 L 107.58049924075519 0 L 100.58049924075519 -3.5 L 100.58049924075519 -0.5 L 72.0148589953776 -0.5 Z"/><text text-anchor="middle" pointer-events="none" font-size="8px" fill="#000000" x="62.790249620377594" y="3" font-family="sans-serif">say</text></g><g class="relationship" transform="translate(-106.03622556630673 -27.08293416634836) rotate(391.5071471609722)"><path class="outline" fill="#A5ABB6" stroke="none" d="M 25 0.5 L 83.98045613994569 0.5 L 83.98045613994569 -0.5 L 25 -0.5 Z M 102.42967488994569 0.5 L 161.41013102989137 0.5 L 161.41013102989137 3.5 L 168.41013102989137 0 L 161.41013102989137 -3.5 L 161.41013102989137 -0.5 L 102.42967488994569 -0.5 Z"/><text text-anchor="middle" pointer-events="none" font-size="8px" fill="#000000" x="93.20506551494569" y="3" font-family="sans-serif">say</text></g><g class="relationship" transform="translate(-36.86365567375757 170.98381609087275) rotate(314.6237308613752)"><path class="outline" fill="#A5ABB6" stroke="none" d="M 25 0.5 L 55.41145357798369 0.5 L 55.41145357798369 -0.5 L 25 -0.5 Z M 73.86067232798369 0.5 L 104.27212590596739 0.5 L 104.27212590596739 3.5 L 111.27212590596739 0 L 104.27212590596739 -3.5 L 104.27212590596739 -0.5 L 73.86067232798369 -0.5 Z"/><text text-anchor="middle" pointer-events="none" font-size="8px" fill="#000000" x="64.63606295298369" y="3" font-family="sans-serif">say</text></g><g class="relationship" transform="translate(-127.04358891015619 29.10678439005762) rotate(373.574508002176)"><path class="outline" fill="#A5ABB6" stroke="none" d="M 25 0.5 L 82.89857522983331 0.5 L 82.89857522983331 -0.5 L 25 -0.5 Z M 101.34779397983331 0.5 L 159.24636920966663 0.5 L 159.24636920966663 3.5 L 166.24636920966663 0 L 159.24636920966663 -3.5 L 159.24636920966663 -0.5 L 101.34779397983331 -0.5 Z"/><text text-anchor="middle" pointer-events="none" font-size="8px" fill="#000000" x="92.12318460483331" y="3" font-family="sans-serif">say</text></g><g class="relationship" transform="translate(164.6271242815688 -14.999708032576814) rotate(499.92218850986256)"><path class="outline" fill="#A5ABB6" stroke="none" d="M 25 0.5 L 56.38853029903572 0.5 L 56.38853029903572 -0.5 L 25 -0.5 Z M 74.83774904903572 0.5 L 106.22627934807144 0.5 L 106.22627934807144 3.5 L 113.22627934807144 0 L 106.22627934807144 -3.5 L 106.22627934807144 -0.5 L 74.83774904903572 -0.5 Z"/><text text-anchor="middle" pointer-events="none" font-size="8px" fill="#000000" x="65.61313967403572" y="3" transform="rotate(180 65.61313967403572 0)" font-family="sans-serif">say</text></g><g class="relationship" transform="translate(-131.38292426869128 88.94104776847885) rotate(355.50765647115327)"><path class="outline" fill="#A5ABB6" stroke="none" d="M 24.018736134675446,-6.953439040707552 L 24.277555179777966,-5.987513214418485 A 270.8139606099744 270.8139606099744 0 0 1 78.24722329872279,-14.734956140886936 L 78.18769112936843,-15.733182528442342 A 271.8139606099744 271.8139606099744 0 0 0 24.018736134675446,-6.953439040707552 Z M 105.57299767396754,-15.98428126960306 L 105.5317796593242,-14.985131093068617 A 270.8139606099744 270.8139606099744 0 0 1 159.6527727672939,-7.228782749423519 L 158.92958176094805,-4.317254839830262 L 166.56686972406916,-6.02659171954875 L 160.61702744242172,-11.110819962214528 L 159.89383643607587,-8.19929205262127 A 271.8139606099744 271.8139606099744 0 0 0 105.57299767396754,-15.98428126960306"/><text text-anchor="middle" pointer-events="none" font-size="8px" fill="#000000" x="91.88176433881254" y="-12.703870851937268" font-family="sans-serif">cause</text></g><g class="relationship" transform="translate(-131.38292426869128 88.94104776847885) rotate(355.50765647115327)"><path class="outline" fill="#A5ABB6" stroke="none" d="M 24.018736134675446,6.953439040707552 L 24.277555179777966,5.987513214418485 A 270.8139606099744 270.8139606099744 0 0 0 82.68233505457559,14.96297954996328 L 82.63917985391907,15.962047930333881 A 271.8139606099744 271.8139606099744 0 0 1 24.018736134675446,6.953439040707552 Z M 101.11806075307278,16.131482722830356 L 101.09323239299648,15.13179099407796 A 270.8139606099744 270.8139606099744 0 0 0 159.6527727672939,7.228782749423519 L 158.92958176094805,4.317254839830262 L 166.56686972406916,6.02659171954875 L 160.61702744242172,11.110819962214528 L 159.89383643607587,8.19929205262127 A 271.8139606099744 271.8139606099744 0 0 1 101.11806075307278,16.131482722830356"/><text text-anchor="middle" pointer-events="none" font-size="8px" fill="#000000" x="91.88176433881262" y="18.703870851937268" font-family="sans-serif">say</text></g><g class="relationship" transform="translate(-66.06161890960719 116.597612033976) rotate(341.1685499926722)"><path class="outline" fill="#A5ABB6" stroke="none" d="M 25 0.5 L 53.26889200665828 0.5 L 53.26889200665828 -0.5 L 25 -0.5 Z M 71.71811075665828 0.5 L 99.98700276331655 0.5 L 99.98700276331655 3.5 L 106.98700276331655 0 L 99.98700276331655 -3.5 L 99.98700276331655 -0.5 L 71.71811075665828 -0.5 Z"/><text text-anchor="middle" pointer-events="none" font-size="8px" fill="#000000" x="62.49350138165828" y="3" font-family="sans-serif">say</text></g><g class="relationship" transform="translate(-120.5605440015997 147.94359448687797) rotate(337.60069318955266)"><path class="outline" fill="#A5ABB6" stroke="none" d="M 25 0.5 L 84.3068287102664 0.5 L 84.3068287102664 -0.5 L 25 -0.5 Z M 102.7560474602664 0.5 L 162.0628761705328 0.5 L 162.0628761705328 3.5 L 169.0628761705328 0 L 162.0628761705328 -3.5 L 162.0628761705328 -0.5 L 102.7560474602664 -0.5 Z"/><text text-anchor="middle" pointer-events="none" font-size="8px" fill="#000000" x="93.5314380852664" y="3" font-family="sans-serif">say</text></g><g class="relationship" transform="translate(104.17863992450442 172.22101416259707) rotate(245.2331540164189)"><path class="outline" fill="#A5ABB6" stroke="none" d="M 25 0.5 L 41.36387864095649 0.5 L 41.36387864095649 -0.5 L 25 -0.5 Z M 59.81309739095649 0.5 L 76.17697603191299 0.5 L 76.17697603191299 3.5 L 83.17697603191299 0 L 76.17697603191299 -3.5 L 76.17697603191299 -0.5 L 59.81309739095649 -0.5 Z"/><text text-anchor="middle" pointer-events="none" font-size="8px" fill="#000000" x="50.58848801595649" y="3" transform="rotate(180 50.58848801595649 0)" font-family="sans-serif">say</text></g><g class="relationship" transform="translate(-89.71074488104286 199.38939418841045) rotate(319.8353673386796)"><path class="outline" fill="#A5ABB6" stroke="none" d="M 25 0.5 L 84.48310092720709 0.5 L 84.48310092720709 -0.5 L 25 -0.5 Z M 102.93231967720709 0.5 L 162.41542060441418 0.5 L 162.41542060441418 3.5 L 169.41542060441418 0 L 162.41542060441418 -3.5 L 162.41542060441418 -0.5 L 102.93231967720709 -0.5 Z"/><text text-anchor="middle" pointer-events="none" font-size="8px" fill="#000000" x="93.70771030220709" y="3" font-family="sans-serif">say</text></g><g class="relationship" transform="translate(15.75903516565499 199.8037368412002) rotate(288.9110581013093)"><path class="outline" fill="#A5ABB6" stroke="none" d="M 25 0.5 L 53.76933853608868 0.5 L 53.76933853608868 -0.5 L 25 -0.5 Z M 72.21855728608868 0.5 L 100.98789582217736 0.5 L 100.98789582217736 3.5 L 107.98789582217736 0 L 100.98789582217736 -3.5 L 100.98789582217736 -0.5 L 72.21855728608868 -0.5 Z"/><text text-anchor="middle" pointer-events="none" font-size="8px" fill="#000000" x="62.99394791108868" y="3" font-family="sans-serif">say</text></g></g><g class="layer nodes"><g class="node" transform="translate(-46.42062124453829,240.93659681060447)"><circle class="outline" cx="0" cy="0" r="25" fill="#8DCC93" stroke="#5db665" stroke-width="2px"/><text text-anchor="middle" pointer-events="none" font-family="sans-serif" dy="1.5625" font-size="25" fill="#2A2C34"/><text text-anchor="middle" pointer-events="none" x="0" y="5" font-size="10px" fill="#2A2C34" font-family="sans-serif"> minister</text></g><g class="node" transform="translate(58.86041311929115,73.99415193723469)"><circle class="outline" cx="0" cy="0" r="25" fill="#ECB5C9" stroke="#da7298" stroke-width="2px"/><text text-anchor="middle" pointer-events="none" font-family="sans-serif" dy="1.5625" font-size="25" fill="#2A2C34"/><text text-anchor="middle" pointer-events="none" x="0" y="5" font-size="10px" fill="#2A2C34" font-family="sans-serif"> reuters</text></g><g class="node" transform="translate(10.412566593018813,260.0994037542843)"><circle class="outline" cx="0" cy="0" r="25" fill="#8DCC93" stroke="#5db665" stroke-width="2px"/><text text-anchor="middle" pointer-events="none" font-family="sans-serif" dy="1.5625" font-size="25" fill="#2A2C34"/><text text-anchor="middle" pointer-events="none" x="0" y="5" font-size="10px" fill="#2A2C34" font-family="sans-serif"> diaz</text></g><g class="node" transform="translate(170.89498925298483,144.70278519658007)"><circle class="outline" cx="0" cy="0" r="25" fill="#8DCC93" stroke="#5db665" stroke-width="2px"/><text text-anchor="middle" pointer-events="none" font-family="sans-serif" dy="1.5625" font-size="25" fill="#2A2C34"/><text text-anchor="middle" pointer-events="none" x="0" y="5" font-size="10px" fill="#2A2C34" font-family="sans-serif"> pickens</text></g><g class="node" transform="translate(65.90887111031648,282.92677922313254)"><circle class="outline" cx="0" cy="0" r="25" fill="#8DCC93" stroke="#5db665" stroke-width="2px"/><text text-anchor="middle" pointer-events="none" font-family="sans-serif" dy="1.5625" font-size="25" fill="#2A2C34"/><text text-anchor="middle" pointer-events="none" x="0" y="5" font-size="10px" fill="#2A2C34" font-family="sans-serif"> dufour</text></g><g class="node" transform="translate(116.15263256847275,-50.3481464013299)"><circle class="outline" cx="0" cy="0" r="25" fill="#8DCC93" stroke="#5db665" stroke-width="2px"/><text text-anchor="middle" pointer-events="none" font-family="sans-serif" dy="1.5625" font-size="25" fill="#2A2C34"/><text text-anchor="middle" pointer-events="none" x="0" y="5" font-size="10px" fill="#2A2C34" font-family="sans-serif"> brito</text></g><g class="node" transform="translate(152.52909797335815,207.74891962977173)"><circle class="outline" cx="0" cy="0" r="25" fill="#8DCC93" stroke="#5db665" stroke-width="2px"/><text text-anchor="middle" pointer-events="none" font-family="sans-serif" dy="1.5625" font-size="25" fill="#2A2C34"/><text text-anchor="middle" pointer-events="none" x="0" y="5" font-size="10px" fill="#2A2C34" font-family="sans-serif"> townson</text></g><g class="node" transform="translate(131.28302714496428,263.8428696907574)"><circle class="outline" cx="0" cy="0" r="25" fill="#8DCC93" stroke="#5db665" stroke-width="2px"/><text text-anchor="middle" pointer-events="none" font-family="sans-serif" dy="1.5625" font-size="25" fill="#2A2C34"/><text text-anchor="middle" pointer-events="none" x="0" y="5" font-size="10px" fill="#2A2C34" font-family="sans-serif"> silvia</text></g><g class="node" transform="translate(207.7328441714325,231.06126163380182)"><circle class="outline" cx="0" cy="0" r="25" fill="#8DCC93" stroke="#5db665" stroke-width="2px"/><text text-anchor="middle" pointer-events="none" font-family="sans-serif" dy="1.5625" font-size="25" fill="#2A2C34"/><text text-anchor="middle" pointer-events="none" x="0" y="5" font-size="10px" fill="#2A2C34" font-family="sans-serif"> lazo</text></g><g class="node" transform="translate(193.45479986323048,37.61936744673736)"><circle class="outline" cx="0" cy="0" r="25" fill="#8DCC93" stroke="#5db665" stroke-width="2px"/><text text-anchor="middle" pointer-events="none" font-family="sans-serif" dy="1.5625" font-size="25" fill="#2A2C34"/><text text-anchor="middle" pointer-events="none" x="0" y="5" font-size="10px" fill="#2A2C34" font-family="sans-serif"> schlesin…</text></g><g class="node" transform="translate(2.6129483584835196,-42.656139749753414)"><circle class="outline" cx="0" cy="0" r="25" fill="#8DCC93" stroke="#5db665" stroke-width="2px"/><text text-anchor="middle" pointer-events="none" font-family="sans-serif" dy="1.5625" font-size="25" fill="#2A2C34"/><text text-anchor="middle" pointer-events="none" x="0" y="5" font-size="10px" fill="#2A2C34" font-family="sans-serif"> klopfens…</text></g><g class="node" transform="translate(226.97733731529726,174.24049083385316)"><circle class="outline" cx="0" cy="0" r="25" fill="#8DCC93" stroke="#5db665" stroke-width="2px"/><text text-anchor="middle" pointer-events="none" font-family="sans-serif" dy="1.5625" font-size="25" fill="#2A2C34"/><text text-anchor="middle" pointer-events="none" x="0" y="5" font-size="10px" fill="#2A2C34" font-family="sans-serif"> fahd</text></g><g class="node" transform="translate(58.09571940673383,-65.4890501995207)"><circle class="outline" cx="0" cy="0" r="25" fill="#8DCC93" stroke="#5db665" stroke-width="2px"/><text text-anchor="middle" pointer-events="none" font-family="sans-serif" dy="1.5625" font-size="25" fill="#2A2C34"/><text text-anchor="middle" pointer-events="none" x="0" y="5" font-size="10px" fill="#2A2C34" font-family="sans-serif"> herbert</text></g><g class="node" transform="translate(259.49987367816874,123.82484744837029)"><circle class="outline" cx="0" cy="0" r="25" fill="#8DCC93" stroke="#5db665" stroke-width="2px"/><text text-anchor="middle" pointer-events="none" font-family="sans-serif" dy="1.5625" font-size="25" fill="#2A2C34"/><text text-anchor="middle" pointer-events="none" x="0" y="5" font-size="10px" fill="#2A2C34" font-family="sans-serif"> glickman</text></g><g class="node" transform="translate(244.47497683719428,1.2315020076949197)"><circle class="outline" cx="0" cy="0" r="25" fill="#8DCC93" stroke="#5db665" stroke-width="2px"/><text text-anchor="middle" pointer-events="none" font-family="sans-serif" dy="1.5625" font-size="25" fill="#2A2C34"/><text text-anchor="middle" pointer-events="none" x="0" y="5" font-size="10px" fill="#2A2C34" font-family="sans-serif"> harkin</text></g><g class="node" transform="translate(72.84417358824726,223.38659980033495)"><circle class="outline" cx="0" cy="0" r="25" fill="#8DCC93" stroke="#5db665" stroke-width="2px"/><text text-anchor="middle" pointer-events="none" font-family="sans-serif" dy="1.5625" font-size="25" fill="#2A2C34"/><text text-anchor="middle" pointer-events="none" x="0" y="5" font-size="10px" fill="#2A2C34" font-family="sans-serif"> sanchez</text></g><g class="node" transform="translate(258.99130122199307,59.99307185450792)"><circle class="outline" cx="0" cy="0" r="25" fill="#8DCC93" stroke="#5db665" stroke-width="2px"/><text text-anchor="middle" pointer-events="none" font-family="sans-serif" dy="1.5625" font-size="25" fill="#2A2C34"/><text text-anchor="middle" pointer-events="none" x="0" y="5" font-size="10px" fill="#2A2C34" font-family="sans-serif"> geiger</text></g><g class="node" transform="translate(213.325853344281,-50.043964843031155)"><circle class="outline" cx="0" cy="0" r="25" fill="#8DCC93" stroke="#5db665" stroke-width="2px"/><text text-anchor="middle" pointer-events="none" font-family="sans-serif" dy="1.5625" font-size="25" fill="#2A2C34"/><text text-anchor="middle" pointer-events="none" x="0" y="5" font-size="10px" fill="#2A2C34" font-family="sans-serif"> yulo</text></g><g class="node" transform="translate(44.85403101793496,-123.98859667449292)"><circle class="outline" cx="0" cy="0" r="25" fill="#8DCC93" stroke="#5db665" stroke-width="2px"/><text text-anchor="middle" pointer-events="none" font-family="sans-serif" dy="1.5625" font-size="25" fill="#2A2C34"/><text text-anchor="middle" pointer-events="none" x="0" y="5" font-size="10px" fill="#2A2C34" font-family="sans-serif"> moham…</text></g><g class="node" transform="translate(206.23254624128018,96.22769864722)"><circle class="outline" cx="0" cy="0" r="25" fill="#8DCC93" stroke="#5db665" stroke-width="2px"/><text text-anchor="middle" pointer-events="none" font-family="sans-serif" dy="1.5625" font-size="25" fill="#2A2C34"/><text text-anchor="middle" pointer-events="none" x="0" y="5" font-size="10px" fill="#2A2C34" font-family="sans-serif"> goode</text></g><g class="node" transform="translate(168.53166976087132,-89.96416408811484)"><circle class="outline" cx="0" cy="0" r="25" fill="#8DCC93" stroke="#5db665" stroke-width="2px"/><text text-anchor="middle" pointer-events="none" font-family="sans-serif" dy="1.5625" font-size="25" fill="#2A2C34"/><text text-anchor="middle" pointer-events="none" x="0" y="5" font-size="10px" fill="#2A2C34" font-family="sans-serif"> hoffman</text></g><g class="node" transform="translate(110.28197256823097,-113.96158760946417)"><circle class="outline" cx="0" cy="0" r="25" fill="#8DCC93" stroke="#5db665" stroke-width="2px"/><text text-anchor="middle" pointer-events="none" font-family="sans-serif" dy="1.5625" font-size="25" fill="#2A2C34"/><text text-anchor="middle" pointer-events="none" x="0" y="5" font-size="10px" fill="#2A2C34" font-family="sans-serif"> halvorsen</text></g><g class="node" transform="translate(-13.517203122354159,-101.78330042088261)"><circle class="outline" cx="0" cy="0" r="25" fill="#8DCC93" stroke="#5db665" stroke-width="2px"/><text text-anchor="middle" pointer-events="none" font-family="sans-serif" dy="1.5625" font-size="25" fill="#2A2C34"/><text text-anchor="middle" pointer-events="none" x="0" y="5" font-size="10px" fill="#2A2C34" font-family="sans-serif"> gallego</text></g><g class="node" transform="translate(-48.154376992911835,-7.28488249031728)"><circle class="outline" cx="0" cy="0" r="25" fill="#8DCC93" stroke="#5db665" stroke-width="2px"/><text text-anchor="middle" pointer-events="none" font-family="sans-serif" dy="1.5625" font-size="25" fill="#2A2C34"/><text text-anchor="middle" pointer-events="none" x="0" y="5" font-size="10px" fill="#2A2C34" font-family="sans-serif"> boschwitz</text></g><g class="node" transform="translate(-65.81144722510514,-71.59401701353747)"><circle class="outline" cx="0" cy="0" r="25" fill="#8DCC93" stroke="#5db665" stroke-width="2px"/><text text-anchor="middle" pointer-events="none" font-family="sans-serif" dy="1.5625" font-size="25" fill="#2A2C34"/><text text-anchor="middle" pointer-events="none" x="0" y="5" font-size="10px" fill="#2A2C34" font-family="sans-serif"> simmons</text></g><g class="node" transform="translate(-72.07045418226689,53.144769054528325)"><circle class="outline" cx="0" cy="0" r="25" fill="#8DCC93" stroke="#5db665" stroke-width="2px"/><text text-anchor="middle" pointer-events="none" font-family="sans-serif" dy="1.5625" font-size="25" fill="#2A2C34"/><text text-anchor="middle" pointer-events="none" x="0" y="5" font-size="10px" fill="#2A2C34" font-family="sans-serif"> roldan</text></g><g class="node" transform="translate(-106.03622556630673,-27.08293416634836)"><circle class="outline" cx="0" cy="0" r="25" fill="#8DCC93" stroke="#5db665" stroke-width="2px"/><text text-anchor="middle" pointer-events="none" font-family="sans-serif" dy="1.5625" font-size="25" fill="#2A2C34"/><text text-anchor="middle" pointer-events="none" x="0" y="5" font-size="10px" fill="#2A2C34" font-family="sans-serif"> kaunda</text></g><g class="node" transform="translate(-36.86365567375757,170.98381609087275)"><circle class="outline" cx="0" cy="0" r="25" fill="#8DCC93" stroke="#5db665" stroke-width="2px"/><text text-anchor="middle" pointer-events="none" font-family="sans-serif" dy="1.5625" font-size="25" fill="#2A2C34"/><text text-anchor="middle" pointer-events="none" x="0" y="5" font-size="10px" fill="#2A2C34" font-family="sans-serif"> nazer</text></g><g class="node" transform="translate(-127.04358891015619,29.10678439005762)"><circle class="outline" cx="0" cy="0" r="25" fill="#8DCC93" stroke="#5db665" stroke-width="2px"/><text text-anchor="middle" pointer-events="none" font-family="sans-serif" dy="1.5625" font-size="25" fill="#2A2C34"/><text text-anchor="middle" pointer-events="none" x="0" y="5" font-size="10px" fill="#2A2C34" font-family="sans-serif"> cornelis…</text></g><g class="node" transform="translate(164.6271242815688,-14.999708032576814)"><circle class="outline" cx="0" cy="0" r="25" fill="#8DCC93" stroke="#5db665" stroke-width="2px"/><text text-anchor="middle" pointer-events="none" font-family="sans-serif" dy="1.5625" font-size="25" fill="#2A2C34"/><text text-anchor="middle" pointer-events="none" x="0" y="5" font-size="10px" fill="#2A2C34" font-family="sans-serif"> herrington</text></g><g class="node" transform="translate(-131.38292426869128,88.94104776847885)"><circle class="outline" cx="0" cy="0" r="25" fill="#8DCC93" stroke="#5db665" stroke-width="2px"/><text text-anchor="middle" pointer-events="none" font-family="sans-serif" dy="1.5625" font-size="25" fill="#2A2C34"/><text text-anchor="middle" pointer-events="none" x="0" y="5" font-size="10px" fill="#2A2C34" font-family="sans-serif"> saleh</text></g><g class="node" transform="translate(-66.06161890960719,116.597612033976)"><circle class="outline" cx="0" cy="0" r="25" fill="#8DCC93" stroke="#5db665" stroke-width="2px"/><text text-anchor="middle" pointer-events="none" font-family="sans-serif" dy="1.5625" font-size="25" fill="#2A2C34"/><text text-anchor="middle" pointer-events="none" x="0" y="5" font-size="10px" fill="#2A2C34" font-family="sans-serif"> neyra</text></g><g class="node" transform="translate(-120.5605440015997,147.94359448687797)"><circle class="outline" cx="0" cy="0" r="25" fill="#8DCC93" stroke="#5db665" stroke-width="2px"/><text text-anchor="middle" pointer-events="none" font-family="sans-serif" dy="1.5625" font-size="25" fill="#2A2C34"/><text text-anchor="middle" pointer-events="none" x="0" y="5" font-size="10px" fill="#2A2C34" font-family="sans-serif"> o'neil</text></g><g class="node" transform="translate(104.17863992450442,172.22101416259707)"><circle class="outline" cx="0" cy="0" r="25" fill="#8DCC93" stroke="#5db665" stroke-width="2px"/><text text-anchor="middle" pointer-events="none" font-family="sans-serif" dy="1.5625" font-size="25" fill="#2A2C34"/><text text-anchor="middle" pointer-events="none" x="0" y="5" font-size="10px" fill="#2A2C34" font-family="sans-serif"> concepc…</text></g><g class="node" transform="translate(-89.71074488104286,199.38939418841045)"><circle class="outline" cx="0" cy="0" r="25" fill="#8DCC93" stroke="#5db665" stroke-width="2px"/><text text-anchor="middle" pointer-events="none" font-family="sans-serif" dy="1.5625" font-size="25" fill="#2A2C34"/><text text-anchor="middle" pointer-events="none" x="0" y="5" font-size="10px" fill="#2A2C34" font-family="sans-serif"> huckaby</text></g><g class="node" transform="translate(15.75903516565499,199.8037368412002)"><circle class="outline" cx="0" cy="0" r="25" fill="#8DCC93" stroke="#5db665" stroke-width="2px"/><text text-anchor="middle" pointer-events="none" font-family="sans-serif" dy="1.5625" font-size="25" fill="#2A2C34"/><text text-anchor="middle" pointer-events="none" x="0" y="5" font-size="10px" fill="#2A2C34" font-family="sans-serif"> siaahan</text></g></g></svg>